<?xml version="1.0" standalone="no"?>
<!DOCTYPE svg PUBLIC "-//W3C//DTD SVG 1.1//EN" "http://www.w3.org/Graphics/SVG/1.1/DTD/svg11.dtd" >
<svg xmlns="http://www.w3.org/2000/svg">
<metadata>
This is a custom SVG webfont generated by Font Squirrel.
Copyright   : Copyright c 2011 by Dieter Hofrichter All rights reserved
Designer    : Dieter Hofrichter
Foundry     : Dieter Hofrichter
Foundry URL : httpwwwhoftypecom
</metadata>
<defs>
<font id="CordaLight" horiz-adv-x="1101" >
<font-face units-per-em="2048" ascent="1638" descent="-410" />
<missing-glyph horiz-adv-x="460" />
<glyph unicode=" "  horiz-adv-x="460" />
<glyph unicode="&#x09;" horiz-adv-x="460" />
<glyph unicode="&#xa0;" horiz-adv-x="460" />
<glyph unicode="!" horiz-adv-x="540" d="M190 88q0 47 32 79t79 32t78 -32t31 -81q0 -47 -31 -78t-78 -31t-79 32t-32 79zM219 1276q0 111 90 110q49 0 70.5 -22.5t21.5 -83.5q0 -29 -12 -182l-29 -363l-24 -321h-62q-55 835 -55 862z" />
<glyph unicode="&#x22;" horiz-adv-x="655" d="M96 1343q0 84 78 84t78 -81q0 -16 -10 -91l-26 -187q-15 -114 -23 -169h-48q-6 59 -19 170l-21.5 185.5t-8.5 88.5zM403 1343q0 84 78 84t78 -81q0 -16 -10 -91l-26 -187q-15 -114 -23 -169h-47q-6 59 -19.5 170l-22 185.5t-8.5 88.5z" />
<glyph unicode="#" horiz-adv-x="1159" d="M86 416v119h250l59 282h-217v119h242l90 420h82l-90 -420h258l90 420h82l-90 -420h231v-119h-256l-61 -282h225v-119h-250l-100 -469h-80l98 469h-258l-100 -469h-80l98 469h-223zM416 535h260l59 282h-258z" />
<glyph unicode="$" horiz-adv-x="1036" d="M70 242q0 80 116 106l13 -8q0 -135 83 -200.5t201 -69.5v532l-92 45q-260 127 -260 346q0 139 101.5 222t250.5 98v205h74v-201q172 -2 259 -66.5t87 -140.5q0 -55 -108 -94l-15 8q-2 209 -223 219v-520l70 -33q170 -80 236.5 -158.5t66.5 -183.5q0 -150 -104.5 -242 t-268.5 -110v-195h-74v191q-182 0 -297.5 75t-115.5 175zM252 1016q0 -84 51 -139.5t170 -112.5l10 -6v481q-98 -12 -164.5 -71.5t-66.5 -151.5zM557 72q111 14 179.5 75.5t68.5 171.5q0 84 -60.5 136.5t-187.5 111.5v-495z" />
<glyph unicode="%" horiz-adv-x="1724" d="M63 903q0 190 84 301t226 111q164 0 235.5 -117t71.5 -303q0 -188 -79 -298t-228 -110q-160 0 -235 111.5t-75 304.5zM166 915q0 -371 209 -370q205 0 205 342q0 184 -48.5 277t-160.5 93q-205 0 -205 -342zM436 -39l772 1387h90l-772 -1387h-90zM1044 399q0 190 84 301 t226 111q164 0 235.5 -116.5t71.5 -303.5q0 -188 -79 -297.5t-228 -109.5q-160 0 -235 111t-75 304zM1147 412q0 -371 209 -371q205 0 205 342q0 184 -48.5 277.5t-160.5 93.5q-205 0 -205 -342z" />
<glyph unicode="&#x26;" horiz-adv-x="1390" d="M98 356.5q0 141.5 76 230.5t234 171q-129 174 -129 319.5t98 231.5t244 86q135 0 216 -69t81 -193q0 -211 -347 -371q88 -121 211 -266.5t209 -219.5q84 127 84 242q0 111 -110 174v15q51 63 110 63q53 0 85 -48t32 -122q0 -178 -154 -371q133 -135 273 -135q43 0 78 17 l8 -13q-20 -51 -69.5 -83.5t-100.5 -32.5q-66 0 -117 26.5t-160 122.5q-162 -156 -403 -156q-217 0 -333 120t-116 261.5zM236 393q0 -133 100 -225t254 -92q197 0 311 104q-215 193 -457 529q-208 -111 -208 -316zM408 1124q0 -164 122 -315q268 143 269 321 q0 94 -49.5 141.5t-139.5 47.5q-82 0 -142 -52.5t-60 -142.5z" />
<glyph unicode="'" horiz-adv-x="348" d="M96 1343q0 84 78 84t78 -81q0 -16 -10 -91l-26 -187q-15 -114 -23 -169h-48q-6 59 -19 170l-21.5 185.5t-8.5 88.5z" />
<glyph unicode="(" horiz-adv-x="610" d="M92 625q0 295 107.5 518t373.5 362l21 -37q-367 -219 -367 -839q0 -709 367 -905l-19 -39q-483 197 -483 940z" />
<glyph unicode=")" horiz-adv-x="610" d="M16 -279q367 219 367 840q0 709 -367 905l19 39q483 -197 483 -940q0 -295 -107.5 -518t-373.5 -362z" />
<glyph unicode="*" horiz-adv-x="788" d="M106 1230.5q0 26.5 20.5 53.5t51.5 27q18 0 34.5 -12.5t40 -39t28.5 -30.5q57 -57 94 -80q-6 68 -19 123q-25 102 -24 108q0 53 65 54q68 0 68 -54q0 -12 -25 -110q-16 -59 -18 -121q55 37 94 80l20 20q13 14 17 19.5t13 14.5t15 12l13 9q8 5 14 6t15 1q27 0 44 -22.5 t17 -51.5t-26.5 -44t-98.5 -34q-78 -20 -123 -43q33 -14 119 -37q76 -18 102.5 -32.5t26.5 -45.5q0 -29 -19.5 -52t-48.5 -23q-12 0 -26.5 7t-22.5 14t-27 28l-30 31q-57 57 -88 75q4 -51 18 -116q25 -88 25 -111q0 -51 -68 -51q-66 0 -65 49q0 20 26 119q14 55 17 110 q-33 -23 -90 -80l-22 -21l-19 -19l-15 -15q-8 -8 -13 -11t-11 -7t-12.5 -5t-12.5 -1q-29 0 -49 23.5t-20 53.5q0 47 125 74q72 16 122 41q-25 12 -120 43q-94 27 -105 33q-27 14 -27 40.5z" />
<glyph unicode="+" horiz-adv-x="1181" d="M111 547v96h434v432h96v-432h432v-96h-432v-430h-96v430h-434z" />
<glyph unicode="," horiz-adv-x="460" d="M76 -287q150 115 149 228q0 47 -43 79q-57 43 -57 95q0 41 29.5 69.5t74.5 28.5q57 0 92 -40t35 -116q0 -109 -68.5 -206t-187.5 -164z" />
<glyph unicode="-" horiz-adv-x="608" d="M102 453v122h404v-122h-404z" />
<glyph unicode="." horiz-adv-x="509" d="M145 88q0 47 32 79t79 32t78 -32t31 -81q0 -47 -31 -78t-78 -31t-79 32t-32 79z" />
<glyph unicode="/" horiz-adv-x="700" d="M8 -236l553 1747h107l-553 -1747h-107z" />
<glyph unicode="0" d="M82 655q0 311 128 492.5t345 181.5q127 0 220 -55t145.5 -152.5t77 -216.5t24.5 -264q0 -309 -120 -488.5t-347 -179.5q-244 0 -358.5 183.5t-114.5 498.5zM223 676q0 -625 334 -625q154 0 240 143.5t86 434.5q0 309 -77 465.5t-257 156.5q-326 0 -326 -575z" />
<glyph unicode="1" d="M209 1102q201 100 340 203h84v-1090q0 -96 40 -139t165 -45v-33q-131 4 -269 4q-150 0 -305 -4v33q135 2 186.5 46t51.5 138v946q-145 -63 -279 -100z" />
<glyph unicode="2" d="M115 -2v72q401 307 543.5 502.5t142.5 388.5q0 289 -269 288q-252 0 -251 -303l-15 -4q-102 25 -102 115q0 109 99 189.5t278 80.5q201 0 300 -97t99 -265q0 -188 -159.5 -394t-491.5 -454q242 4 672 4v-123q-59 2 -424 2q-322 0 -422 -2z" />
<glyph unicode="3" d="M92 186q0 39 29 71t76 46l14 -6q0 -109 81 -177.5t204 -68.5q172 0 244.5 85t72.5 243q0 270 -344 270q-43 0 -88 -4v70q41 -4 88 -4q137 0 213 73.5t76 223.5q0 244 -256 243q-117 0 -178.5 -67.5t-61.5 -184.5l-14 -6q-100 29 -101 103q0 86 103.5 159.5t263.5 73.5 q184 0 282.5 -84t98.5 -231q0 -115 -62.5 -201t-183.5 -121q303 -53 303 -309q0 -193 -126 -301.5t-337 -108.5q-180 0 -288.5 63.5t-108.5 149.5z" />
<glyph unicode="4" d="M98 340v72q256 440 367 675q43 92 43 150q0 35 -14 53l-2 17q37 45 86 45q29 0 51 -22.5t22 -61.5q0 -70 -94 -246q-68 -131 -332 -569h480v505h126v-505h175v-113h-175v-133q0 -90 34 -132t132 -44v-33q-131 4 -229 4q-86 0 -242 -4v33q113 2 146 41t33 135v133h-607z " />
<glyph unicode="5" d="M111 188q0 39 27.5 71t76.5 46l14 -6q0 -111 70 -179.5t193 -68.5q328 0 327 350q0 141 -94 228.5t-248 87.5q-137 0 -260 -45l62 622h620v-127h-547l-39 -379q86 31 213 31q199 0 315.5 -105.5t116.5 -297.5q0 -195 -133 -319t-342 -124q-178 0 -275 63.5t-97 151.5z " />
<glyph unicode="6" d="M131 580q0 96 14.5 193t52.5 199.5t95 180.5t150.5 127t209.5 49q162 0 243 -61.5t81 -149.5q0 -35 -28.5 -63.5t-78.5 -40.5l-14 6q0 113 -47 172t-162 59q-178 0 -271 -162.5t-106 -447.5q41 59 135.5 106.5t198.5 47.5q174 0 283.5 -103.5t109.5 -281.5 q0 -188 -116.5 -312.5t-305.5 -124.5q-444 1 -444 607zM266 510q0 -84 13.5 -157.5t46 -145.5t98 -114t158.5 -42q123 0 200.5 86t77.5 269q0 154 -88 221t-209 67q-170 0 -295 -102q0 -8 -1 -40t-1 -42z" />
<glyph unicode="7" d="M129 1167v125h817v-82q-276 -506 -420 -868q-43 -109 -43 -207q0 -66 45 -96l2 -14q-47 -47 -110 -48q-35 0 -61.5 27t-26.5 78q0 119 100 340q94 203 391 745h-694z" />
<glyph unicode="8" d="M133 319q0 231 275 355q-219 119 -220 313q0 150 104.5 246t264.5 96q176 0 267 -85t91 -224q0 -100 -71.5 -185t-175.5 -135q141 -61 221 -144t80 -208q0 -172 -116 -273.5t-308 -101.5q-207 0 -309.5 97t-102.5 249zM254 330q0 -129 80 -204t219 -75q127 0 209 74 t82 184.5t-89 184t-292 155.5q-209 -141 -209 -319zM311 1018q0 -88 69 -155.5t234 -137.5q188 147 189 287q0 106 -68.5 172.5t-179.5 66.5q-113 0 -178.5 -68.5t-65.5 -164.5z" />
<glyph unicode="9" d="M104 893q0 188 117 311t305 123q244 0 344.5 -163t100.5 -443q0 -100 -13.5 -196.5t-49.5 -199t-92 -179t-149.5 -126t-211.5 -49.5q-160 0 -250 63.5t-90 149.5q0 35 31.5 65t80.5 44l13 -6q0 -238 221 -238q178 0 268 171t102 470q-37 -68 -131 -120t-200 -52 q-176 0 -286 98.5t-110 276.5zM242 895q0 -150 88 -213.5t211 -63.5q166 0 293 121q0 8 1 31t1 33q0 84 -13.5 155.5t-46.5 141t-98.5 109.5t-157.5 40q-123 0 -200.5 -85t-77.5 -269z" />
<glyph unicode=":" horiz-adv-x="550" d="M186 88q0 47 32 79t79 32t78 -32t31 -81q0 -47 -31 -78t-78 -31t-79 32t-32 79zM186 868q0 45 32 78t79 33t78 -32t31 -81q0 -47 -31 -77.5t-78 -30.5t-79 31.5t-32 78.5z" />
<glyph unicode=";" horiz-adv-x="550" d="M127 -287q150 115 149 228q0 47 -43 79q-57 43 -57 95q0 41 30 69.5t75 28.5q57 0 92 -40t35 -116q0 -109 -69 -206t-187 -164zM186 868q0 45 32 78t79 33t78 -32t31 -81q0 -47 -31 -77.5t-78 -30.5t-79 31.5t-32 78.5z" />
<glyph unicode="&#x3c;" horiz-adv-x="1228" d="M195 532v109l790 397v-110l-690 -338l690 -332v-115z" />
<glyph unicode="=" horiz-adv-x="1228" d="M158 391v98h913v-98h-913zM158 709v96h913v-96h-913z" />
<glyph unicode="&#x3e;" horiz-adv-x="1228" d="M246 143v113l686 338l-686 330v114l788 -389v-106z" />
<glyph unicode="?" horiz-adv-x="892" d="M135 1159q0 94 88 164t262 70q147 0 244.5 -85t97.5 -210q0 -115 -51 -194t-201 -183l-34 -25l-38 -26l-34 -26q-23 -17 -33 -31l-23 -30q-13 -17 -18.5 -37t-5.5 -40q0 -59 31 -109l-49 -22q-66 96 -66 178q0 80 45 134t170 142q170 119 170 261q0 100 -55 160.5 t-156 60.5q-215 0 -215 -258l-14 -6q-59 12 -87 43.5t-28 68.5zM272 88q0 47 32 79t79 32t78 -32t31 -81q0 -47 -31 -78t-78 -31t-79 32t-32 79z" />
<glyph unicode="@" horiz-adv-x="1617" d="M94 358q0 236 105.5 439.5t301 329.5t437.5 126q168 0 294 -54t189.5 -139t93 -170t29.5 -169q0 -201 -83 -371t-238 -266q-80 -49 -158 -49q-57 0 -87 35.5t-30 89.5q0 29 4 49q-43 -70 -130 -125t-173 -55q-109 0 -168 65.5t-59 173.5q0 205 121 394q66 102 171 163.5 t224 61.5q113 0 178 -72q49 41 98 64l21 -9q-39 -102 -74 -235q-88 -346 -88 -461q0 -49 51 -49q78 0 156 88q70 76 108.5 218t38.5 286q0 209 -130 338t-365 129q-311 0 -515 -237.5t-204 -594.5q0 -281 173 -449.5t448 -168.5q381 0 632 252l43 -39q-291 -303 -690 -303 q-338 0 -531.5 191t-193.5 523zM553 285q0 -68 35 -115t100 -47q74 0 134.5 35t135.5 110l125 506q-72 49 -163 49q-158 0 -271 -190q-96 -166 -96 -348z" />
<glyph unicode="A" horiz-adv-x="1325" d="M8 -2v31q80 2 119 46t74 138l317 860q78 215 105 295h98q35 -119 98 -293l303 -862q33 -92 74 -137t119 -47v-31q-156 4 -207 4q-135 0 -266 -4v31q158 4 157 82q0 35 -22 102l-78 223h-508l-78 -223q-20 -55 -20 -96q0 -39 43 -62.5t113 -25.5v-31q-131 4 -234 4 q-51 0 -207 -4zM420 522h450l-223 647z" />
<glyph unicode="B" horiz-adv-x="1202" d="M96 0v31q96 2 130 45t34 137v969q0 88 -32.5 121.5t-131.5 35.5v29q72 -4 228 -4q37 0 125 2t126 2q240 0 345.5 -84t105.5 -254q0 -106 -68.5 -185t-207.5 -114q168 -18 258 -112.5t90 -231.5q0 -190 -140.5 -288.5t-386.5 -98.5q-12 0 -100 2t-135 2q-56 0 -240 -4z M393 98q119 -12 209 -12q348 0 348 299q0 221 -245 272q-76 18 -213 19h-99v-578zM393 756h103q117 0 196 20q195 59 195 236q0 182 -150 243q-72 33 -198 33h-146v-532z" />
<glyph unicode="C" horiz-adv-x="1140" d="M113 662q0 342 157.5 536.5t429.5 194.5q186 0 286.5 -55.5t100.5 -139.5q0 -76 -108 -121l-14 6q0 117 -81 174.5t-192 57.5q-199 0 -315.5 -153.5t-116.5 -481.5q0 -162 38 -283t104.5 -187.5t142.5 -97t164 -30.5q244 0 372 197h11q14 -16 14 -37q0 -82 -119 -175.5 t-291 -93.5q-291 0 -437 181.5t-146 507.5z" />
<glyph unicode="D" horiz-adv-x="1355" d="M96 -2v33q96 2 130 46t34 138v979q0 84 -31.5 112.5t-132.5 30.5v33q113 -6 238 -6q35 0 114.5 2t112.5 2q340 0 510 -158.5t170 -517.5q0 -319 -155.5 -505.5t-497.5 -186.5q-35 0 -131.5 2t-128.5 2q-123 0 -232 -6zM393 98q78 -10 174 -10q272 0 398.5 132t126.5 458 q0 549 -412 600q-84 10 -287 10v-1190z" />
<glyph unicode="E" horiz-adv-x="1118" d="M96 -2v33q96 2 130 46t34 138v979q0 84 -31.5 112.5t-132.5 30.5v33q170 -8 312 -8q242 0 555 6q8 -121 22 -297h-35q-35 143 -98.5 177t-267.5 34h-191v-528h107q170 0 223 29.5t59 117.5h41q-4 -63 -4 -188t4 -187h-41q-6 86 -58 118t-222 32h-109v-578 q150 -16 350 -16q123 0 174.5 52t67.5 194h41q-4 -217 -4 -328q-217 2 -651 2q-148 0 -275 -4z" />
<glyph unicode="F" horiz-adv-x="1075" d="M96 -2v33q96 2 130 46t34 138v979q0 84 -31.5 112.5t-132.5 30.5v33q170 -8 312 -8q233 0 550 6q4 -111 21 -297h-35q-35 143 -99.5 177t-269.5 34h-182v-559h107q170 0 223 30.5t59 118.5h41q-4 -63 -4 -188t4 -188h-41q-6 86 -58 117.5t-222 31.5h-109v-416 q0 -106 35 -151t150 -47v-33q-127 4 -250 4q-80 0 -232 -4z" />
<glyph unicode="G" horiz-adv-x="1316" d="M109 678q0 332 166.5 523.5t445.5 191.5q186 0 288.5 -53.5t102.5 -135.5t-104 -127l-15 6q0 117 -79.5 174.5t-194.5 57.5q-236 0 -349.5 -178.5t-113.5 -468.5q0 -283 115.5 -437.5t351.5 -154.5q174 0 260 41v317q0 96 -36 140t-146 47v30q152 -4 246 -4q78 0 208 4 v-30q-143 -6 -143 -187q0 -307 18 -346q-195 -115 -423 -115q-291 0 -444.5 176.5t-153.5 528.5z" />
<glyph unicode="H" horiz-adv-x="1468" d="M96 -2v33q96 2 130 46t34 138v979q0 84 -31.5 112.5t-132.5 30.5v33q76 -4 232 -4q154 0 229 4v-33q-102 -2 -133 -29.5t-31 -113.5v-436h678v436q0 84 -31.5 112.5t-134.5 30.5v33q76 -4 234 -4q152 0 227 4v-33q-102 -2 -132 -29.5t-30 -113.5v-979q0 -94 33 -138 t129 -46v-33q-131 4 -227 4q-82 0 -234 -4v33q96 2 131 46t35 138v457h-678v-457q0 -94 34 -138t130 -46v-33q-131 4 -229 4q-80 0 -232 -4z" />
<glyph unicode="I" horiz-adv-x="653" d="M96 -2v33q96 2 130 46t34 138v979q0 84 -31.5 112.5t-132.5 30.5v33q76 -4 232 -4q154 0 229 4v-33q-102 -2 -133 -29.5t-31 -113.5v-979q0 -94 34 -138t130 -46v-33q-131 4 -229 4q-80 0 -232 -4z" />
<glyph unicode="J" horiz-adv-x="638" d="M0 -225q70 20 106.5 37.5t77.5 61.5t58.5 125t17.5 208v975q0 84 -39 118.5t-141 36.5v33q76 -4 244 -4q158 0 233 4v-33q-102 -2 -133 -29.5t-31 -113.5v-983q0 -203 -37 -285q-39 -90 -122.5 -130t-178.5 -40q-39 0 -55 6v13z" />
<glyph unicode="K" horiz-adv-x="1277" d="M96 -2v33q96 2 130 46t34 138v979q0 84 -31.5 112.5t-132.5 30.5v33q76 -4 232 -4q154 0 229 4v-33q-102 -2 -133 -29.5t-31 -113.5v-979q0 -94 34 -138t130 -46v-33q-131 4 -229 4q-80 0 -232 -4zM440 690v23q72 20 117 63q100 96 231 258q141 178 142 238q0 35 -28 48 t-109 17v33q86 -4 223 -4q129 0 215 4v-33q-53 -6 -98.5 -46t-149.5 -165l-369 -421q215 -305 418 -508q117 -117 232 -121l6 -15q-66 -72 -144 -71q-63 0 -120.5 39t-147.5 145q-137 160 -332 426q-43 59 -86 90z" />
<glyph unicode="L" horiz-adv-x="1073" d="M96 -2v33q96 2 130 46t34 138v979q0 84 -31.5 112.5t-132.5 30.5v33q76 -4 230 -4q160 0 235 4v-33q-102 -2 -135 -30.5t-33 -112.5v-1098q129 -10 352 -10q123 0 170.5 52t63.5 194h43q-6 -164 -6 -332q-217 2 -645 2q-148 0 -275 -4z" />
<glyph unicode="M" horiz-adv-x="1732" d="M57 -2v33q94 2 130 47t44 137q84 936 84 1010q-39 84 -147 90l-4 14q78 53 166 53q55 0 83.5 -21.5t53.5 -64.5q59 -104 175 -401t226 -625l400 1098q66 -4 166 -4q41 0 155 6v-33q-88 -2 -116.5 -36.5t-28.5 -120.5q0 -63 55 -965q6 -98 38 -140t126 -44v-33 q-131 4 -238 4q-76 0 -231 -4v33q98 2 131 45t33 139q0 68 -21.5 480.5t-29.5 504.5q-395 -1075 -426 -1173h-76q-160 522 -406 1095q-61 -793 -61 -907q0 -94 34 -138t130 -46v-33q-127 4 -240 4q-53 0 -205 -4z" />
<glyph unicode="N" horiz-adv-x="1482" d="M106 -2v33q96 2 132 47t36 137v1022q-55 72 -161 78l-4 12q70 59 161 59q82 0 158 -83q168 -184 709 -1037q-12 178 -13 889q0 92 -33.5 137t-129.5 47v31q74 -4 219 -4q78 0 209 4v-31q-96 -2 -130 -47t-34 -137v-1161h-74q-477 762 -784 1165q4 -147 4 -944 q0 -94 34.5 -138t131.5 -46v-33q-131 4 -209 4q-37 0 -110 -2t-112 -2z" />
<glyph unicode="O" horiz-adv-x="1353" d="M113 690q0 324 149.5 514.5t409.5 190.5q156 0 269.5 -57.5t177 -161t92 -227.5t28.5 -273q0 -324 -143.5 -513.5t-413.5 -189.5q-289 0 -429 194.5t-140 522.5zM260 711q0 -303 104.5 -481.5t317.5 -178.5q186 0 298 151.5t112 454.5q0 315 -104.5 487.5t-315.5 172.5 q-201 0 -306.5 -156.5t-105.5 -449.5z" />
<glyph unicode="P" horiz-adv-x="1187" d="M96 -2v33q96 2 130 46t34 138v967q0 88 -32.5 121.5t-131.5 35.5v29q72 -4 230 -4q39 0 139 2t137 2q489 0 490 -350q0 -182 -134.5 -304t-439.5 -122q-78 0 -125 4v-367q0 -106 35 -151t150 -47v-33q-127 4 -250 4q-80 0 -232 -4zM393 678q43 -4 127 -4q229 0 330.5 91 t101.5 236q0 182 -164 250q-84 37 -225 37h-170v-610z" />
<glyph unicode="Q" horiz-adv-x="1353" d="M113 690q0 324 149.5 514.5t409.5 190.5q156 0 269.5 -57.5t177 -161t92 -227.5t28.5 -273q0 -250 -87 -423t-253 -241q129 -98 209 -138t158 -40q61 0 96 19l12 -11q-14 -51 -55 -84.5t-94 -33.5q-86 0 -181.5 51t-277.5 205q-80 -6 -84 -7q-289 0 -429 194.5 t-140 522.5zM260 711q0 -303 104.5 -481.5t317.5 -178.5q186 0 298 151.5t112 454.5q0 315 -104.5 487.5t-315.5 172.5q-201 0 -306.5 -156.5t-105.5 -449.5z" />
<glyph unicode="R" horiz-adv-x="1294" d="M96 -2v33q96 2 130 46t34 138v967q0 88 -32.5 121.5t-131.5 35.5v29q72 -4 228 -4q37 0 133 2t135 2q471 0 471 -340q0 -281 -334 -369q74 -8 139 -124l150 -261q72 -119 127 -163q49 -39 139 -39l6 -11q-68 -76 -149 -75q-68 0 -117 41t-115 151q-27 47 -79 147.5 t-88.5 164t-61.5 85.5q-59 51 -170 52q-70 0 -117 2v-400q0 -106 35 -151t150 -47v-33q-127 4 -252 4q-78 0 -230 -4zM393 711q41 -4 121 -4q406 0 406 303q0 279 -355 278h-172v-577z" />
<glyph unicode="S" horiz-adv-x="1048" d="M66 242q0 86 110 112l12 -10q0 -150 99.5 -218.5t232.5 -68.5q137 0 230.5 66.5t93.5 202.5q0 90 -68.5 151.5t-204.5 124.5l-168 82q-272 129 -272 365q0 168 128 257t304 89q186 0 280.5 -69t94.5 -152q0 -63 -100 -101l-15 8q-2 125 -76.5 180.5t-189.5 55.5 q-123 0 -213 -65.5t-90 -178.5q0 -90 56.5 -152.5t178.5 -121.5l162 -78q180 -86 250 -169t70 -196q0 -178 -135.5 -280.5t-333.5 -102.5q-188 0 -312 80t-124 189z" />
<glyph unicode="T" horiz-adv-x="1185" d="M47 1071l23 297q313 -4 524 -4q207 0 520 4q10 -160 25 -297h-41q-35 145 -94.5 182t-247.5 37h-97v-1075q0 -94 34 -138t130 -46v-33q-131 4 -235 4q-137 0 -223 -4v33q96 2 128.5 46t32.5 138v1075h-112q-135 0 -191.5 -15t-83 -56t-51.5 -148h-41z" />
<glyph unicode="U" horiz-adv-x="1400" d="M80 1337v33q76 -4 231 -4q154 0 230 4v-33q-102 -2 -133 -29.5t-31 -113.5v-725q0 -150 31 -225q72 -174 337 -174q254 0 332 174q31 72 31 215v694q0 92 -33 137t-129 47v31q152 -4 225 -4q80 0 203 4v-31q-96 -2 -129 -48t-33 -140v-690q0 -160 -38 -246 q-98 -236 -445 -236q-344 0 -442 230q-43 100 -43 256v731q0 86 -31 113.5t-133 29.5z" />
<glyph unicode="V" horiz-adv-x="1325" d="M20 1337v33q156 -4 201 -4q131 0 262 4v-33q-160 -4 -159 -90q0 -29 28 -110l324 -924l330 909q31 86 30 131q0 82 -153 84v33q131 -4 227 -4q39 0 195 4v-33q-72 -2 -108 -46t-73 -140l-317 -856q-66 -172 -107 -303h-92q-33 121 -100 301l-305 858q-25 68 -40.5 99.5 t-51.5 58t-91 28.5z" />
<glyph unicode="W" horiz-adv-x="1910" d="M10 1337v33q156 -4 199 -4q127 0 258 4v-33q-94 -2 -121 -25.5t-27 -70.5q0 -35 19 -108l233 -893l258 790q63 193 99 338h94q49 -186 98 -342l250 -786l236 872q23 80 22 129q0 94 -151 96v33q131 -4 229 -4q39 0 195 4v-33q-72 -2 -110 -47t-65 -139l-243 -856 q-35 -119 -78 -303h-94q-27 117 -88 299l-267 803l-268 -805q-57 -162 -90 -297h-94q-6 25 -80 301l-238 858q-27 94 -64.5 139t-111.5 47z" />
<glyph unicode="X" horiz-adv-x="1320" d="M6 0v31q70 6 119 48t117 138l344 488l-310 452q-51 76 -74.5 105.5t-57 53t-74.5 25.5v29q78 -4 235 -4q113 0 244 4v-29q-90 -2 -130 -18t-40 -55q0 -8 3 -19.5t8 -19.5l14 -24q9 -15 16 -24l19 -29q13 -19 20 -28l225 -327l219 317q84 123 84 154q0 39 -37 55t-123 18 v29q131 -4 234 -4q37 0 192 4v-29q-49 -2 -89 -41.5t-113 -144.5l-312 -438l346 -500q45 -68 69 -97.5t67 -58t92 -30.5v-31q-78 4 -250 4q-119 0 -250 -4v31q164 4 164 71q0 33 -76 144l-260 379l-250 -367q-86 -125 -86 -162q0 -39 38 -51t120 -14v-31q-131 4 -232 4 q-73 0 -225 -4z" />
<glyph unicode="Y" horiz-adv-x="1271" d="M8 1341v29q78 -4 232 -4q96 0 227 4v-29q-150 -4 -150 -73q0 -47 58 -148l272 -456l266 448q66 111 66 154q0 72 -143 75v29q131 -4 233 -4q35 0 195 4v-29q-51 -2 -95.5 -46t-107.5 -140l-371 -588v-352q0 -94 33 -138t131 -46v-33q-131 4 -231 4q-78 0 -230 -4v33 q96 2 130 46t34 138v350l-348 590q-39 66 -60.5 96.5t-59.5 59t-81 30.5z" />
<glyph unicode="Z" horiz-adv-x="1091" d="M45 -2v39l786 1245h-307q-207 0 -271.5 -34t-96.5 -177h-37q14 170 22 299q336 -4 430 -4q168 0 451 4v-41l-791 -1241h408q203 0 269.5 36t101.5 181h34q-18 -225 -22 -307q-336 4 -432 4q-262 0 -545 -4z" />
<glyph unicode="[" horiz-adv-x="573" d="M168 -287v1762h328v-64h-201v-1636h201v-62h-328z" />
<glyph unicode="\" horiz-adv-x="700" d="M8 1450h107l532 -1686h-106z" />
<glyph unicode="]" horiz-adv-x="573" d="M78 -223h201v1636h-201v62h328v-1762h-328v64z" />
<glyph unicode="^" horiz-adv-x="1042" d="M168 733l305 635h107l292 -635h-108l-240 531l-243 -531h-113z" />
<glyph unicode="_" horiz-adv-x="1015" d="M-4 -150h1024v-98h-1024v98z" />
<glyph unicode="`" horiz-adv-x="614" d="M111 1419l137 86q90 -182 252 -395l-23 -20q-80 53 -194.5 155t-171.5 174z" />
<glyph unicode="a" horiz-adv-x="1034" d="M98 248q0 287 496 287q63 0 113 -9q2 41 2 95q0 143 -33 198q-55 86 -203 86q-180 0 -272 -137l-31 14q14 80 99 152t233 72q156 0 245 -66t89 -229q0 -29 -3.5 -187.5t-3.5 -261.5q0 -121 38 -162t137 -45v-18q-57 -53 -138 -53q-66 0 -97.5 36.5t-47.5 116.5 q-27 -61 -113 -112.5t-188 -51.5q-141 0 -231.5 77t-90.5 198zM236 262q0 -84 57 -135t162 -51q168 0 254 119q0 6 -1 108.5t-1 157.5q-37 4 -64 4q-407 0 -407 -203z" />
<glyph unicode="b" horiz-adv-x="1120" d="M49 1430v18q102 86 187 86q55 0 71.5 -38t16.5 -165v-491q51 66 137 112.5t186 46.5q180 0 276.5 -123.5t96.5 -369.5q0 -244 -114.5 -385t-301.5 -141q-180 0 -295 88q-37 -63 -119 -101l-10 8q20 68 21 256v1004q0 113 -28 153t-124 42zM324 152q111 -76 260 -76 q131 0 215 103.5t84 328.5q0 197 -78 292t-203 95q-184 0 -278 -125v-618z" />
<glyph unicode="c" horiz-adv-x="925" d="M100 473q0 256 133.5 394.5t329.5 138.5q145 0 219 -47.5t74 -118.5q0 -68 -106 -121l-17 10q0 195 -201 195q-129 0 -214 -99.5t-85 -314.5t90.5 -323.5t239.5 -108.5q174 0 287 137h14q12 -12 13 -33q0 -57 -98.5 -133t-248.5 -76q-195 0 -312.5 129t-117.5 371z" />
<glyph unicode="d" horiz-adv-x="1146" d="M100 471q0 242 127 385t332 143q150 0 244 -77v313q0 113 -29 152.5t-123 42.5v18q98 86 187 86q53 0 70.5 -39t17.5 -164v-1048q0 -127 33.5 -174.5t136.5 -49.5v-18q-49 -53 -138 -53q-125 0 -143 147q-53 -72 -137 -113.5t-178 -41.5q-162 0 -281 120.5t-119 370.5z M240 502q0 -221 81.5 -320.5t206.5 -99.5q172 0 275 113v641q-98 76 -242 75q-135 0 -228 -99t-93 -310z" />
<glyph unicode="e" horiz-adv-x="987" d="M100 498q0 238 118 373t306 135q383 0 383 -426q0 -55 -69 -56h-609q2 -225 93.5 -335.5t250.5 -110.5q199 0 312 137h10q10 -8 10 -35q0 -59 -105.5 -133t-256.5 -74q-217 0 -330 138.5t-113 386.5zM231 590q131 2 298 5t192 3q45 0 45 39q0 291 -250 291 q-98 0 -186.5 -75t-98.5 -263z" />
<glyph unicode="f" horiz-adv-x="638" d="M78 893v43q86 18 117.5 69.5t46.5 178.5q20 182 118.5 267t227.5 85q121 0 169 -40t48 -87q0 -72 -113 -94l-12 8q0 80 -35 106.5t-92 26.5q-104 0 -162 -108q-35 -68 -35 -240v-133h258v-82h-258v-682q0 -104 42 -140t143 -40v-33q-119 6 -246 6q-129 0 -205 -6v33 q80 4 110.5 43t30.5 137v682h-153z" />
<glyph unicode="g" horiz-adv-x="999" d="M59 -193q0 72 52.5 122.5t128.5 70.5l10 -10q-63 -68 -64 -146q0 -94 78 -151.5t228 -57.5q164 0 249.5 66t85.5 156q0 96 -66.5 128.5t-297.5 47.5q-178 10 -232 41q-66 37 -65 108q0 106 176 183q-223 94 -223 299q0 147 97 240t269 93q113 0 215 -39q178 0 193 82h16 q39 -39 39 -79q0 -88 -106 -89q-61 0 -107 11q102 -63 103 -217q0 -113 -74 -202t-236 -110q-49 -6 -104 -6q-47 -16 -86 -54t-39 -67q0 -43 39 -61q41 -18 237 -25q76 -2 125.5 -8t101.5 -21.5t81.5 -41t49 -70.5t19.5 -109q0 -143 -134 -238t-333 -95q-207 0 -316.5 73.5 t-109.5 175.5zM252 672q0 -125 64.5 -188.5t162.5 -63.5q100 0 164 61.5t64 184.5q0 131 -61.5 194.5t-166.5 63.5q-100 0 -163.5 -61.5t-63.5 -190.5z" />
<glyph unicode="h" horiz-adv-x="1171" d="M74 1430v18q102 86 188 86q53 0 68.5 -38t15.5 -165v-504q53 72 145.5 122t215.5 50q168 0 227 -122q31 -68 31 -199v-381q0 -106 14 -156q29 -86 160 -86v-18q-63 -53 -133 -53q-115 0 -150 104q-14 45 -14 211v330q0 111 -21 172q-35 92 -166 92q-188 0 -309 -121v-569 q0 -90 35 -130t127 -42v-33q-117 6 -223 6q-129 0 -205 -6v33q80 4 111.5 44t31.5 136v1026q0 113 -27.5 152t-121.5 41z" />
<glyph unicode="i" horiz-adv-x="575" d="M80 893v16q92 82 176 82q86 0 106 -100q4 -45 5 -90v-604q0 -88 35.5 -126t129.5 -40v-33q-119 6 -227 6q-127 0 -205 -6v33q82 4 114 43t32 137v418q0 150 -35 207t-131 57zM172 1302.5q0 45.5 29.5 76t74.5 30.5q43 0 72 -30.5t29 -76t-29 -74t-72 -28.5 q-45 0 -74.5 28.5t-29.5 74z" />
<glyph unicode="j" horiz-adv-x="542" d="M16 -397q88 37 127 69.5t66 125.5t27 268v563q0 150 -34 207t-130 57v16q92 82 176 82q104 0 110 -133q2 -35 2 -104v-791q0 -164 -38 -233q-82 -147 -265 -148q-25 0 -41 6v15zM164 1302.5q0 45.5 29.5 76t74.5 30.5q43 0 71 -30.5t28 -76t-28 -74t-71 -28.5 q-45 0 -74.5 28.5t-29.5 74z" />
<glyph unicode="k" horiz-adv-x="1081" d="M59 1430v18q102 86 189 86q53 0 68.5 -38t15.5 -165v-1134q0 -88 33.5 -126t130.5 -40v-33q-119 6 -226 6q-129 0 -204 -6v33q80 4 111.5 43t31.5 137v1024q0 115 -28 154t-122 41zM371 514v16q29 6 75 37q45 31 124 98.5t118 110.5q74 80 74 121q0 33 -25 51l2 13 q49 29 97 28q88 0 88 -67q0 -51 -125 -162q-176 -160 -277 -234q147 -201 262 -323q106 -115 193 -115q41 0 94 14l8 -14q-80 -104 -172 -104q-55 0 -104 29.5t-117 109.5q-51 59 -164.5 209.5t-150.5 181.5z" />
<glyph unicode="l" horiz-adv-x="550" d="M74 1423v19q111 92 194 92q53 0 68.5 -38t15.5 -165v-1134q0 -88 35 -126t129 -40v-33q-123 6 -225 6q-129 0 -205 -6v33q80 4 111.5 43t31.5 137v1026q0 111 -29.5 147.5t-125.5 38.5z" />
<glyph unicode="m" horiz-adv-x="1777" d="M78 893v16q92 82 166 82q23 0 39 -5t34.5 -20.5t28.5 -51t12 -91.5q127 176 361 176q90 0 154.5 -43t84.5 -131q127 174 357 174q166 0 225 -122q31 -78 31 -199v-381q0 -106 14 -156q25 -86 160 -86v-18q-63 -53 -133 -53q-115 0 -152 104q-12 39 -12 211v330 q0 115 -23 172q-33 92 -159 92q-182 0 -301 -119q6 -41 6 -96v-481q0 -86 33.5 -125t119.5 -41v-33q-121 6 -215 6q-139 0 -215 -6v33q90 4 122 42t32 138v418q0 111 -21 172q-35 92 -161 92q-178 0 -301 -119v-577q0 -86 33.5 -125t121.5 -41v-33q-123 6 -217 6 q-137 0 -213 -6v33q88 4 121 42t33 138v418q0 150 -35 207t-131 57z" />
<glyph unicode="n" horiz-adv-x="1191" d="M78 893v16q92 82 166 82q23 0 39 -5t34.5 -20.5t28.5 -51t12 -91.5q49 72 143.5 124t227.5 52q166 0 225 -122q31 -78 31 -199v-381q0 -100 16 -156q25 -86 158 -86v-18q-63 -53 -133 -53q-117 0 -149 104q-12 39 -13 211v330q0 104 -28 168q-16 45 -61.5 70.5 t-100.5 25.5q-186 0 -309 -119v-577q0 -86 33.5 -125t121.5 -41v-33q-123 6 -217 6q-137 0 -213 -6v33q88 4 121 42t33 138v418q0 150 -35 207t-131 57z" />
<glyph unicode="o" horiz-adv-x="1075" d="M100 496q0 240 120 375t325 135q430 0 430 -504q0 -240 -113.5 -384.5t-326.5 -144.5q-219 0 -327 136.5t-108 386.5zM240 520q0 -238 69.5 -353.5t227.5 -115.5q154 0 227.5 123t73.5 330q0 227 -76 325.5t-221 98.5q-147 0 -224 -107.5t-77 -300.5z" />
<glyph unicode="p" horiz-adv-x="1142" d="M57 893v16q86 82 166 82q53 0 79 -36.5t36 -116.5q137 162 317 161q78 0 142.5 -23.5t122 -76.5t90 -154.5t32.5 -244.5q0 -242 -116.5 -376t-319.5 -134q-162 0 -260 78v-287q0 -96 39 -134t137 -42v-33q-123 6 -237 6q-139 0 -215 -6v33q88 6 120.5 43t32.5 137v848 q0 139 -33 199.5t-133 60.5zM346 154q100 -76 258 -76q127 0 214 101.5t87 297.5q0 221 -77.5 319.5t-198.5 98.5q-178 0 -283 -123v-618z" />
<glyph unicode="q" horiz-adv-x="1120" d="M100 475q0 244 129 384t328 140q74 0 129 -16t75.5 -29.5t51.5 -40.5q31 59 111 99l18 -8q-23 -76 -22 -254v-967q0 -88 34.5 -131t120.5 -47v-33q-121 6 -215 6q-164 0 -237 -6v33q94 6 135 46t41 138v346q-96 -150 -293 -149q-182 0 -294 124.5t-112 364.5zM240 471 q0 -193 88 -288t217 -95q154 0 254 117v633q-100 72 -246 71q-141 0 -227 -104.5t-86 -333.5z" />
<glyph unicode="r" horiz-adv-x="739" d="M80 893v18q92 80 172 80q104 0 108 -182q35 74 103.5 132t150.5 58q53 0 82 -23.5t29 -64.5q0 -66 -80 -116l-10 4q-25 61 -92 61q-43 0 -97.5 -31.5t-80.5 -83.5v-548q0 -82 33.5 -123t127.5 -43v-33q-121 6 -211 6q-119 0 -202 -6v33q76 4 103.5 46t27.5 138v412 q0 150 -34 208t-130 58z" />
<glyph unicode="s" horiz-adv-x="880" d="M100 170q0 35 23.5 57.5t77.5 42.5l14 -8q0 -113 72.5 -162t175.5 -49q90 0 159.5 45t69.5 137q0 125 -196 195l-125 43q-229 80 -230 254q0 131 100.5 206t243.5 75q145 0 215 -50.5t70 -117.5q0 -51 -94 -90l-14 6q0 176 -195 176q-88 0 -149.5 -42t-61.5 -124 q0 -123 176 -182l123 -41q139 -49 197.5 -111.5t58.5 -155.5q0 -145 -106.5 -223t-280.5 -78q-156 0 -240 63.5t-84 133.5z" />
<glyph unicode="t" horiz-adv-x="649" d="M72 893v43q72 16 104.5 34.5t65 74t61.5 165.5h47v-235h256v-82h-256v-596q0 -70 10 -121q20 -98 136 -98q61 0 141 31l14 -15q-90 -115 -215 -114q-88 0 -137 37.5t-66 123.5q-6 49 -6 119v633h-155z" />
<glyph unicode="u" horiz-adv-x="1181" d="M70 893v16q29 31 82 56.5t104 25.5q80 0 84 -90q2 -39 2 -139v-414q0 -119 29 -182q49 -86 176 -86q195 0 299 115v469q0 76 -6 124q-6 55 -41 80t-111 25v16q31 29 86 55.5t107 26.5q82 0 86 -92q2 -37 2 -199v-444q0 -109 37.5 -155t134.5 -46v-18q-51 -53 -135 -53 q-129 0 -148 149q-125 -160 -344 -160q-86 0 -156.5 33t-101.5 92q-37 66 -37 211v340q0 106 -4 135q-8 59 -40.5 84t-104.5 25z" />
<glyph unicode="v" horiz-adv-x="1015" d="M8 893v18q80 80 133 80q29 0 50.5 -14t31.5 -29.5t27 -46.5q43 -88 94 -227q96 -264 180 -524l219 475q63 147 64 215q0 57 -49 80l-2 16q63 55 132.5 55t69.5 -76q0 -53 -31.5 -133t-111.5 -239l-270 -551h-86q-211 627 -295 780q-35 63 -67 92t-89 29z" />
<glyph unicode="w" horiz-adv-x="1527" d="M20 893v18q76 80 136 80q70 0 110 -92q35 -78 76 -225q72 -258 119 -498q283 727 303 789h86l266 -793q98 238 162 451q39 133 39 217q0 61 -51 80l-2 16q72 55 133 55q70 0 69 -78q0 -84 -112 -370l-219 -553h-86q-61 221 -263 778q-297 -748 -307 -776h-86 q-164 649 -225 782q-29 61 -62 89t-86 30z" />
<glyph unicode="x" horiz-adv-x="1046" d="M14 94l15 15q23 -8 47 -9q88 0 155 86q96 119 226 303q-141 223 -191 289q-43 57 -76.5 75.5t-95.5 25.5l-8 14q74 96 139 96q35 0 61.5 -22.5t65.5 -81.5l191 -297q143 217 198 293q80 109 144 108q68 0 106 -96l-8 -12q-121 -8 -203 -103q-78 -90 -190 -254 q123 -197 231 -340q43 -55 85 -73.5t106 -20.5l6 -12q-66 -92 -146 -92q-66 0 -129 88l-237 352q-154 -240 -238 -350q-72 -92 -141 -92q-84 -1 -113 110z" />
<glyph unicode="y" horiz-adv-x="999" d="M8 893v16q72 82 139 82q25 0 45.5 -15t30.5 -29.5t27 -45.5q29 -51 82 -188q217 -561 219 -568l76 190q66 163 110 288q53 150 54 211q0 59 -52 86l-2 16q76 55 140 55q25 0 45 -18.5t20 -61.5q0 -20 -6 -48.5t-13.5 -52.5t-23.5 -64l-26 -62l-30 -72l-30 -67l-82 -195 l-93 -217l-89 -192q-55 -117 -109 -213q-41 -76 -84 -116t-66.5 -46t-60.5 -6q-45 0 -80.5 40t-42.5 93l13 8q33 -14 69 -14q119 0 199 141q63 113 90 176q-221 594 -313 768q-33 61 -67 91t-89 30z" />
<glyph unicode="z" horiz-adv-x="968" d="M66 23q80 96 161 213l482 665q-143 0 -267 -6q-147 -6 -199.5 -41t-78.5 -141h-31q-14 63 -14 112q0 98 31.5 126t130.5 28q29 0 102.5 -1t99.5 -1q182 0 408 4l10 -27l-153 -198l-482 -666q82 -4 256 -4q172 0 244 41q86 49 129 129h29q-4 -158 -42 -207t-155 -49 q-45 0 -214 1t-249 1t-186 -4z" />
<glyph unicode="{" horiz-adv-x="636" d="M45 580v28q109 12 140.5 76t31.5 229v246q0 168 70.5 252t271.5 84v-45q-129 0 -172 -59.5t-43 -227.5v-301q0 -133 -36 -186t-142 -80q102 -25 141 -77t39 -189v-314q0 -150 45 -211t168 -61v-47q-188 0 -263 71.5t-75 239.5v289q0 139 -37 207t-139 76z" />
<glyph unicode="|" horiz-adv-x="448" d="M168 -287v1762h113v-1762h-113z" />
<glyph unicode="}" horiz-adv-x="636" d="M78 -258q129 0 172 59.5t43 227.5v301q0 133 36 186t142 80q-102 25 -141 77t-39 189v314q0 150 -45 211t-168 61v47q188 0 263 -71.5t75 -239.5v-289q0 -139 36.5 -206.5t139.5 -76.5v-28q-109 -12 -140.5 -76t-31.5 -229v-246q0 -168 -70.5 -252t-271.5 -84v45z" />
<glyph unicode="~" horiz-adv-x="1179" d="M117 541q119 176 274 176q49 0 92 -16.5t138 -71.5q115 -63 170 -64q104 0 200 148l72 -68q-119 -176 -275 -176q-84 0 -200 68q-90 51 -126 66t-75 15q-111 0 -197 -145z" />
<glyph unicode="&#xa1;" horiz-adv-x="540" d="M131 903q0 47 31 78t78 31t78.5 -32t31.5 -79q0 -45 -31.5 -77.5t-78.5 -32.5t-78 31.5t-31 80.5zM139 -291q0 29 13 182l28 363l25 321h61q55 -836 56 -862q0 -111 -91 -110q-49 0 -70.5 22.5t-21.5 83.5z" />
<glyph unicode="&#xa2;" horiz-adv-x="974" d="M137 473q0 225 106.5 360.5t272.5 163.5v183h74v-174h10q143 0 213 -47.5t70 -118.5q0 -37 -17.5 -58.5t-72.5 -50.5l-21 6q0 180 -182 191v-854h10q170 0 287 141h14q2 -4 6 -8q6 -6 6 -25q0 -55 -91 -128.5t-232 -80.5v-172h-74v176q-174 16 -276.5 143.5t-102.5 352.5 zM270 510q0 -186 65.5 -293.5t180.5 -134.5v842q-109 -20 -177.5 -120.5t-68.5 -293.5z" />
<glyph unicode="&#xa3;" horiz-adv-x="1159" d="M68 -2v111q82 8 108 16q80 25 130 136.5t50 281.5h-204v86h204q0 10 -10 150.5t-10 183.5q0 178 113.5 272t295.5 94q180 0 258 -66.5t78 -164.5q0 -72 -116 -105l-15 8q-2 254 -211 254q-274 0 -274 -272q0 -31 9 -173t11 -181h310v-86h-312q-4 -63 -10 -105.5 t-25.5 -105t-60.5 -115.5t-104 -96q104 4 759 8v-131q-135 4 -489 4q-372 0 -485 -4z" />
<glyph unicode="&#xa4;" horiz-adv-x="1249" d="M158 199l121 129q-100 127 -101 295q0 166 101 292l-121 129l63 62l119 -125q119 104 285 104q162 0 280 -100l121 121l61 -59l-118 -129q100 -123 100 -295q0 -168 -100 -295l123 -129l-64 -60l-121 123q-117 -102 -282 -102q-164 0 -283 100l-121 -123zM274 627 q0 -166 98.5 -273.5t252.5 -107.5q152 0 249 106.5t97 270.5q0 162 -97.5 269t-248.5 107q-154 0 -252.5 -106t-98.5 -266z" />
<glyph unicode="&#xa5;" horiz-adv-x="1273" d="M27 1268v28q78 -4 229 -4q94 0 225 4v-28q-154 -2 -153 -74q0 -45 63 -147l256 -431l260 422q66 106 66 154q0 72 -144 76v28q131 -4 230 -4q29 0 188 4v-28q-51 -2 -91 -44t-105 -143l-246 -374h272v-68h-315l-74 -113v-45h389v-67h-389v-199q0 -94 33 -138t131 -46v-33 q-131 4 -231 4q-74 0 -226 -4v33q96 2 130 46t34 138v199h-371v67h371v43l-70 115h-301v68h261l-226 374q-47 80 -67.5 109t-53 52.5t-75.5 25.5z" />
<glyph unicode="&#xa6;" horiz-adv-x="448" d="M168 -287v738h113v-738h-113zM168 737v738h113v-738h-113z" />
<glyph unicode="&#xa7;" horiz-adv-x="933" d="M84 670q0 195 217 286q-111 109 -111 230q0 115 98.5 196.5t243.5 81.5q147 0 222 -58t75 -132q0 -29 -28.5 -56.5t-77.5 -39.5l-14 8q-8 209 -197 209q-84 0 -143.5 -47.5t-59.5 -128.5q0 -66 34 -121.5t130 -128.5l152 -117q145 -111 202.5 -189.5t57.5 -160.5 q0 -102 -57.5 -175t-176.5 -132q141 -131 142 -261q0 -117 -96.5 -206.5t-254.5 -89.5q-150 0 -237.5 63t-87.5 133q0 78 110 103l15 -9q2 -219 213 -219q92 0 154.5 55.5t62.5 129.5q0 63 -43 126.5t-164 167.5l-180 158q-201 174 -201 324zM207 705q0 -111 141 -238 l105 -94q109 -94 149 -133q78 41 116 104.5t38 126.5q0 51 -34 106.5t-142 143.5l-134 106q-94 78 -100 84q-139 -61 -139 -206z" />
<glyph unicode="&#xa8;" horiz-adv-x="614" d="M41 1268q0 39 24.5 64.5t63.5 25.5t64.5 -25.5t25.5 -64.5t-25.5 -64.5t-64.5 -25.5t-63.5 25.5t-24.5 64.5zM395 1268q0 39 24.5 64.5t63.5 25.5t64.5 -25.5t25.5 -64.5t-25.5 -64.5t-64.5 -25.5t-63.5 25.5t-24.5 64.5z" />
<glyph unicode="&#xa9;" horiz-adv-x="1636" d="M90 684q0 311 211 510t518 199t518 -199t211 -510q0 -317 -207.5 -513t-521.5 -196q-315 0 -522 196t-207 513zM174 682q0 -291 184.5 -467t461 -176t460.5 176t184 467q0 293 -184 468t-461 175q-279 0 -462 -175t-183 -468zM436 680q0 219 119 339t291 120 q125 0 187.5 -42t62.5 -104q0 -74 -82 -112l-21 6q0 180 -176 180q-109 0 -188.5 -87t-79.5 -271.5t83 -280.5t210 -96q143 0 250 129h12q12 -18 12 -29q0 -51 -85 -118.5t-218 -67.5q-166 0 -271.5 114.5t-105.5 319.5z" />
<glyph unicode="&#xaa;" horiz-adv-x="808" d="M90 827q0 219 369 220q31 0 92 -7q2 25 2 72q0 86 -27 131q-43 59 -153 60q-131 0 -191 -117l-32 12q8 68 73.5 130.5t188.5 62.5q254 0 254 -224q0 -23 -2 -137.5t-2 -189.5q0 -88 28.5 -115t108.5 -31v-22q-49 -39 -109 -39q-106 0 -131 112q-29 -49 -87 -85.5 t-136 -36.5q-111 0 -178.5 57t-67.5 147zM213 836q0 -53 36 -88t111 -35q125 0 193 86q-2 35 -2 182q-12 2 -45 2q-154 -2 -223.5 -33.5t-69.5 -113.5z" />
<glyph unicode="&#xab;" horiz-adv-x="997" d="M88 485q164 168 375 422l37 -28q-27 -51 -68 -118l-93 -149l-75 -118q117 -190 236 -408l-41 -25q-197 242 -371 424zM469 485q164 168 375 422l37 -28q-27 -51 -68 -118l-93 -149l-75 -118l236 -408l-41 -25q-154 191 -371 424z" />
<glyph unicode="&#xac;" horiz-adv-x="1228" d="M139 465v98h914v-504h-99v406h-815z" />
<glyph unicode="&#xad;" horiz-adv-x="608" d="M102 453v122h404v-122h-404z" />
<glyph unicode="&#xae;" horiz-adv-x="1636" d="M90 684q0 311 211 510t518 199t518 -199t211 -510q0 -317 -207.5 -513t-521.5 -196q-315 0 -522 196t-207 513zM174 682q0 -291 184.5 -467t461 -176t460.5 176t184 467q0 293 -184 468t-461 175q-279 0 -462 -175t-183 -468zM477 270v35q61 2 83 29.5t22 85.5v575 q0 53 -20.5 75t-84.5 24v30q45 -2 170 -2q25 0 84.5 1t83.5 1q313 0 313 -211q0 -182 -227 -235q47 -6 88 -74q18 -29 50 -85l44 -77q39 -66 78 -96q31 -25 88 -24l4 -13q-41 -47 -92 -47q-57 0 -94 26.5t-76 94.5l-49 91l-54 100q-22 38 -38 53q-35 31 -86 30q-43 0 -74 2 v-231q0 -66 22.5 -93.5t94.5 -29.5v-35q-41 2 -158 2q-123 0 -172 -2zM690 723q27 -2 76 -2q139 0 186 47t47 133q0 160 -200 160h-109v-338z" />
<glyph unicode="&#xaf;" horiz-adv-x="901" d="M188 1202v111h525v-111h-525z" />
<glyph unicode="&#xb0;" horiz-adv-x="665" d="M57 1188q0 127 80 200.5t195 73.5q117 0 196.5 -69.5t79.5 -202.5q0 -127 -81 -201t-195 -74q-117 0 -196 72t-79 201zM152 1190q0 -90 49 -146.5t131 -56.5q84 0 133 56.5t49 144.5q0 90 -49 146.5t-133 56.5q-78 0 -129 -56.5t-51 -144.5z" />
<glyph unicode="&#xb1;" horiz-adv-x="1228" d="M158 92v96h913v-96h-913zM158 743v95h407v399h101v-399h405v-95h-405v-399h-101v399h-407z" />
<glyph unicode="&#xb2;" horiz-adv-x="745" d="M80 940v61q260 188 348 300t88 227q0 92 -42 130t-126 38q-158 0 -158 -176l-8 -4q-76 20 -76 81q0 57 69 106.5t181 49.5q125 0 196 -61.5t71 -161.5q0 -119 -96.5 -231.5t-317.5 -268.5q20 0 152.5 1t261.5 1v-92q-39 2 -273 2q-204 0 -270 -2z" />
<glyph unicode="&#xb3;" horiz-adv-x="745" d="M66 1057q0 70 73 88l11 -4q0 -68 48 -113t126 -45q113 0 158.5 48t45.5 143q0 158 -221 157q-43 0 -57 -2v55q12 -2 57 -2q186 0 187 174q0 139 -166 140q-145 0 -146 -156l-10 -4q-72 18 -72 74q0 53 66.5 98t169.5 45q119 0 185.5 -52t66.5 -140q0 -70 -44 -123.5 t-122 -73.5q203 -35 203 -188q0 -117 -84 -183.5t-222 -66.5q-115 0 -184 39t-69 92z" />
<glyph unicode="&#xb4;" horiz-adv-x="614" d="M119 1110q156 205 250 395l137 -86q-57 -72 -172 -174t-195 -155z" />
<glyph unicode="&#xb5;" horiz-adv-x="1185" d="M70 893v16q29 31 82 56.5t104 25.5q80 0 84 -90q2 -39 2 -139v-408q0 -121 29 -178q23 -43 70.5 -69.5t107.5 -26.5q193 0 297 115v469q0 76 -6 124q-6 55 -41 80t-111 25v16q31 29 86 55.5t107 26.5q82 0 86 -92q2 -37 2 -199v-444q0 -109 37.5 -155t134.5 -46v-18 q-51 -53 -135 -53q-129 0 -148 149q-121 -160 -323 -160q-129 0 -201 80q8 -254 8 -481h-123v1077q0 106 -4 135q-8 59 -40.5 84t-104.5 25z" />
<glyph unicode="&#xb6;" horiz-adv-x="1355" d="M84 924q0 322 299 409q119 35 281 35h274v-14q-61 -25 -97 -64t-48 -112q-10 -68 -11 -217v-887q0 -242 -24 -303q-57 -143 -226 -150v14q123 57 140 191q6 55 6 246v415q-215 0 -316 35q-135 47 -206.5 140.5t-71.5 261.5zM379 932q0 -236 104 -324q51 -45 195 -45v398 q0 147 14.5 215.5t63.5 115.5q-168 0 -219 -26q-82 -43 -120 -119t-38 -215zM856 -303q113 51 129 190q12 111 12 246v821q0 242 25 303q57 143 235 150v-14q-127 -59 -143 -191q-12 -111 -12 -246v-821q0 -242 -25 -303q-59 -143 -221 -149v14z" />
<glyph unicode="&#xb7;" horiz-adv-x="509" d="M145 559q0 47 32 79t79 32t78 -32t31 -81q0 -47 -31 -77.5t-78 -30.5t-79 31.5t-32 78.5z" />
<glyph unicode="&#xb8;" horiz-adv-x="614" d="M166 -414q164 27 164 119q0 55 -70 105q-49 37 -49 75q0 31 53 131l35 -12q-20 -41 -20 -67q0 -31 34 -52q61 -37 78 -49q55 -41 55 -102q0 -80 -81.5 -130t-194.5 -50z" />
<glyph unicode="&#xb9;" horiz-adv-x="745" d="M160 1614q88 45 194 125h66v-649q0 -59 24.5 -87t87.5 -30v-33q-82 4 -165 4q-66 0 -168 -4v33q74 2 99.5 29.5t25.5 87.5v550q-74 -37 -148 -61z" />
<glyph unicode="&#xba;" horiz-adv-x="813" d="M59 1012q0 178 95.5 278.5t257.5 100.5q342 0 342 -375q0 -178 -91.5 -286.5t-259.5 -108.5q-344 0 -344 391zM182 1030q0 -174 53.5 -260t170.5 -86q113 0 167 91t54 243q0 166 -55.5 237.5t-164 71.5t-167 -79t-58.5 -218z" />
<glyph unicode="&#xbb;" horiz-adv-x="997" d="M117 92q27 51 67 118l94 148l74 119l-235 408l41 24q154 -190 370 -424q-164 -168 -374 -422zM498 92q27 51 67 118l93 148l75 119q-117 190 -235 408l41 24q197 -242 370 -424q-164 -168 -374 -422z" />
<glyph unicode="&#xbc;" horiz-adv-x="1724" d="M160 1176q88 45 194 124h66v-649q0 -59 24.5 -86.5t87.5 -29.5v-33q-82 4 -165 4q-66 0 -168 -4v33q74 2 99.5 29.5t25.5 86.5v551q-74 -37 -148 -61zM412 -39l772 1387h90l-772 -1387h-90zM979 203v53q195 315 233 401q27 57 27 86t-12 45v9q23 29 59 28q53 0 53 -55 q0 -41 -61 -152q-25 -45 -217 -337h305v303h94v-303h111v-78h-111v-64q0 -55 21.5 -80.5t85.5 -27.5v-33q-86 4 -148 4q-66 0 -168 -4v33q72 2 93.5 25.5t21.5 82.5v64h-387z" />
<glyph unicode="&#xbd;" horiz-adv-x="1724" d="M178 1176q88 45 195 124h65v-649q0 -59 24.5 -86.5t88.5 -29.5v-33q-82 4 -166 4q-66 0 -168 -4v33q74 2 99.5 29.5t25.5 86.5v551q-74 -37 -147 -61zM416 -39l772 1387h90l-772 -1387h-90zM1063 -2v61q260 188 348 300t88 227q0 92 -42 130t-126 38q-158 0 -157 -176 l-9 -5q-76 20 -75 82q0 57 68.5 106.5t180.5 49.5q125 0 196 -61.5t71 -161.5q0 -119 -96.5 -231.5t-317.5 -268.5q20 0 152.5 1t261.5 1v-92q-39 2 -273 2q-204 0 -270 -2z" />
<glyph unicode="&#xbe;" horiz-adv-x="1724" d="M150 618q0 70 73 89l10 -5q0 -68 48.5 -112.5t126.5 -44.5q113 0 158.5 48t45.5 142q0 158 -221 158q-43 0 -57 -2v55q12 -2 57 -2q186 0 187 174q0 139 -166 139q-145 0 -146 -155l-10 -4q-72 18 -72 73q0 53 66.5 98.5t169.5 45.5q119 0 185.5 -52.5t66.5 -140.5 q0 -70 -44 -123t-122 -73q203 -35 203 -189q0 -117 -84 -183.5t-222 -66.5q-115 0 -184 39t-69 92zM496 -39l772 1387h90l-772 -1387h-90zM1038 203v53q195 315 234 401q27 57 26.5 86t-12.5 45v9q23 29 60 28q53 0 53 -55q0 -41 -62 -152q-25 -45 -217 -337h305v303h95 v-303h110v-78h-110v-64q0 -55 21.5 -80.5t84.5 -27.5v-33q-86 4 -147 4q-66 0 -168 -4v33q72 2 93 25.5t21 82.5v64h-387z" />
<glyph unicode="&#xbf;" horiz-adv-x="892" d="M66 -109q0 115 51 194t200 183l35 25l38 26l34 26q23 17 33 31l23 31q13 17 18.5 36.5t5.5 39.5q0 59 -31 109l49 22q66 -96 66 -178q0 -80 -45 -134t-170 -142q-170 -119 -170 -260q0 -100 55 -161t156 -61q215 0 215 259l14 6q59 -12 87 -44t28 -69q0 -94 -88 -163.5 t-262 -69.5q-147 0 -244.5 84.5t-97.5 209.5zM401 903q0 47 31 78t78 31t79 -32t32 -79q0 -45 -32 -77.5t-79 -32.5t-78 31.5t-31 80.5z" />
<glyph unicode="&#xc0;" horiz-adv-x="1325" d="M8 -2v31q80 2 119 46t74 138l317 860q78 215 105 295h98q35 -119 98 -293l303 -862q33 -92 74 -137t119 -47v-31q-156 4 -207 4q-135 0 -266 -4v31q158 4 157 82q0 35 -22 102l-78 223h-508l-78 -223q-20 -55 -20 -96q0 -39 43 -62.5t113 -25.5v-31q-131 4 -234 4 q-51 0 -207 -4zM367 1698l114 112q115 -143 332 -327l-16 -27q-88 33 -222 109t-208 133zM420 522h450l-223 647z" />
<glyph unicode="&#xc1;" horiz-adv-x="1325" d="M8 -2v31q80 2 119 46t74 138l317 860q78 215 105 295h98q35 -119 98 -293l303 -862q33 -92 74 -137t119 -47v-31q-156 4 -207 4q-135 0 -266 -4v31q158 4 157 82q0 35 -22 102l-78 223h-508l-78 -223q-20 -55 -20 -96q0 -39 43 -62.5t113 -25.5v-31q-131 4 -234 4 q-51 0 -207 -4zM420 522h450l-223 647zM514 1464q209 178 332 328l115 -113q-74 -57 -208.5 -133t-222.5 -108z" />
<glyph unicode="&#xc2;" horiz-adv-x="1325" d="M8 -2v31q80 2 119 46t74 138l317 860q78 215 105 295h98q35 -119 98 -293l303 -862q33 -92 74 -137t119 -47v-31q-156 4 -207 4q-135 0 -266 -4v31q158 4 157 82q0 35 -22 102l-78 223h-508l-78 -223q-20 -55 -20 -96q0 -39 43 -62.5t113 -25.5v-31q-131 4 -234 4 q-51 0 -207 -4zM373 1483q84 76 282 284h17l76 -78l65 -66l73 -70l72 -68l-20 -27q-147 70 -274 141q-176 -94 -273 -141zM420 522h450l-223 647z" />
<glyph unicode="&#xc3;" horiz-adv-x="1325" d="M8 -2v31q80 2 119 46t74 138l317 860q78 215 105 295h98q35 -119 98 -293l303 -862q33 -92 74 -137t119 -47v-31q-156 4 -207 4q-135 0 -266 -4v31q158 4 157 82q0 35 -22 102l-78 223h-508l-78 -223q-20 -55 -20 -96q0 -39 43 -62.5t113 -25.5v-31q-131 4 -234 4 q-51 0 -207 -4zM377 1468q20 82 67.5 143.5t116.5 61.5q41 0 139 -41q98 -39 123 -39q45 0 73 21.5t52 68.5l31 -10q-16 -55 -32.5 -90t-54.5 -67.5t-91 -32.5q-55 0 -142 39q-90 39 -124 39q-76 0 -125 -103zM420 522h450l-223 647z" />
<glyph unicode="&#xc4;" horiz-adv-x="1325" d="M8 -2v31q80 2 119 46t74 138l317 860q78 215 105 295h98q35 -119 98 -293l303 -862q33 -92 74 -137t119 -47v-31q-156 4 -207 4q-135 0 -266 -4v31q158 4 157 82q0 35 -22 102l-78 223h-508l-78 -223q-20 -55 -20 -96q0 -39 43 -62.5t113 -25.5v-31q-131 4 -234 4 q-51 0 -207 -4zM385 1573q0 39 24.5 64.5t63.5 25.5t64.5 -25.5t25.5 -64.5t-25.5 -64.5t-64.5 -25.5t-63.5 25.5t-24.5 64.5zM420 522h450l-223 647zM764 1573q0 39 24.5 64.5t63.5 25.5t64.5 -25.5t25.5 -64.5t-25.5 -64.5t-64.5 -25.5t-63.5 25.5t-24.5 64.5z" />
<glyph unicode="&#xc5;" horiz-adv-x="1325" d="M8 -2v31q80 2 119 46t74 138l317 860q78 215 105 295h98q35 -119 98 -293l303 -862q33 -92 74 -137t119 -47v-31q-156 4 -207 4q-135 0 -266 -4v31q158 4 157 82q0 35 -22 102l-78 223h-508l-78 -223q-20 -55 -20 -96q0 -39 43 -62.5t113 -25.5v-31q-131 4 -234 4 q-51 0 -207 -4zM420 522h450l-223 647zM467 1610q0 84 55.5 140t139.5 56q88 0 143 -56t55 -140t-55 -139.5t-143 -55.5q-84 0 -139.5 55.5t-55.5 139.5zM543 1608q0 -53 33.5 -90t85.5 -37q55 0 88.5 35.5t33.5 91.5q0 61 -33.5 98t-88.5 37q-53 0 -86 -38t-33 -97z" />
<glyph unicode="&#xc6;" horiz-adv-x="1894" d="M0 -2v31q61 2 109.5 43t113.5 141l586 911q66 102 65 138q0 37 -35.5 54t-121.5 21v33q76 -4 583 -4q256 0 451 2q4 -111 21 -297h-37q-33 143 -97.5 177t-271.5 34h-188v-545h108q168 0 222.5 31t60.5 119h41q-4 -63 -4 -191q0 -125 4 -186h-41q-6 86 -59.5 117.5 t-221.5 31.5h-110v-561q150 -16 350 -16q125 0 176 52t68 194h43q-8 -217 -9 -328q-217 2 -647 2q-147 0 -274 -4v33q96 2 127.5 46t31.5 138v252h-534l-129 -207q-70 -111 -70 -156q0 -74 150 -75v-31q-131 4 -254 4q-51 0 -207 -4zM563 553h481v725q-27 0 -63 -57z" />
<glyph unicode="&#xc7;" horiz-adv-x="1140" d="M113 662q0 342 157.5 536.5t429.5 194.5q186 0 286.5 -55.5t100.5 -139.5q0 -76 -108 -121l-14 6q0 117 -81 174.5t-192 57.5q-199 0 -315.5 -153.5t-116.5 -481.5q0 -162 38 -283t104.5 -187.5t142.5 -97t164 -30.5q244 0 372 197h11q14 -16 14 -37q0 -82 -119 -175.5 t-291 -93.5h-32q-6 -23 -7 -34q0 -31 37 -54q70 -41 82 -51q57 -43 58 -113q0 -84 -86 -137t-205 -53l-4 35q172 29 172 125q0 68 -72 114q-53 35 -53 80q0 31 32 92q-252 23 -378.5 202.5t-126.5 482.5z" />
<glyph unicode="&#xc8;" horiz-adv-x="1118" d="M96 -2v33q96 2 130 46t34 138v979q0 84 -31.5 112.5t-132.5 30.5v33q170 -8 312 -8q242 0 555 6q8 -121 22 -297h-35q-35 143 -98.5 177t-267.5 34h-191v-528h107q170 0 223 29.5t59 117.5h41q-4 -63 -4 -188t4 -187h-41q-6 86 -58 118t-222 32h-109v-578 q150 -16 350 -16q123 0 174.5 52t67.5 194h41q-4 -217 -4 -328q-217 2 -651 2q-148 0 -275 -4zM303 1698l115 112q115 -143 332 -327l-17 -27q-88 33 -222 109t-208 133z" />
<glyph unicode="&#xc9;" horiz-adv-x="1118" d="M96 -2v33q96 2 130 46t34 138v979q0 84 -31.5 112.5t-132.5 30.5v33q170 -8 312 -8q242 0 555 6q8 -121 22 -297h-35q-35 143 -98.5 177t-267.5 34h-191v-528h107q170 0 223 29.5t59 117.5h41q-4 -63 -4 -188t4 -187h-41q-6 86 -58 118t-222 32h-109v-578 q150 -16 350 -16q123 0 174.5 52t67.5 194h41q-4 -217 -4 -328q-217 2 -651 2q-148 0 -275 -4zM467 1464q209 178 332 328l114 -113q-74 -57 -208 -133t-222 -108z" />
<glyph unicode="&#xca;" horiz-adv-x="1118" d="M96 -2v33q96 2 130 46t34 138v979q0 84 -31.5 112.5t-132.5 30.5v33q170 -8 312 -8q242 0 555 6q8 -121 22 -297h-35q-35 143 -98.5 177t-267.5 34h-191v-528h107q170 0 223 29.5t59 117.5h41q-4 -63 -4 -188t4 -187h-41q-6 86 -58 118t-222 32h-109v-578 q150 -16 350 -16q123 0 174.5 52t67.5 194h41q-4 -217 -4 -328q-217 2 -651 2q-148 0 -275 -4zM315 1483q84 76 283 284h16l76 -78l66 -66l72 -70l73 -68l-20 -27q-147 70 -275 141q-176 -94 -272 -141z" />
<glyph unicode="&#xcb;" horiz-adv-x="1118" d="M96 -2v33q96 2 130 46t34 138v979q0 84 -31.5 112.5t-132.5 30.5v33q170 -8 312 -8q242 0 555 6q8 -121 22 -297h-35q-35 143 -98.5 177t-267.5 34h-191v-528h107q170 0 223 29.5t59 117.5h41q-4 -63 -4 -188t4 -187h-41q-6 86 -58 118t-222 32h-109v-578 q150 -16 350 -16q123 0 174.5 52t67.5 194h41q-4 -217 -4 -328q-217 2 -651 2q-148 0 -275 -4zM324 1573q0 39 24.5 64.5t63.5 25.5t64.5 -25.5t25.5 -64.5t-25.5 -64.5t-64.5 -25.5t-63.5 25.5t-24.5 64.5zM702 1573q0 39 25 64.5t63.5 25.5t64.5 -25.5t26 -64.5t-26 -64.5 t-64.5 -25.5t-63.5 25.5t-25 64.5z" />
<glyph unicode="&#xcc;" horiz-adv-x="653" d="M37 1698l115 112q115 -143 331 -327l-16 -27q-88 33 -222 109t-208 133zM96 -2v33q96 2 130 46t34 138v979q0 84 -31.5 112.5t-132.5 30.5v33q76 -4 232 -4q154 0 229 4v-33q-102 -2 -133 -29.5t-31 -113.5v-979q0 -94 34 -138t130 -46v-33q-131 4 -229 4q-80 0 -232 -4z " />
<glyph unicode="&#xcd;" horiz-adv-x="653" d="M96 -2v33q96 2 130 46t34 138v979q0 84 -31.5 112.5t-132.5 30.5v33q76 -4 232 -4q154 0 229 4v-33q-102 -2 -133 -29.5t-31 -113.5v-979q0 -94 34 -138t130 -46v-33q-131 4 -229 4q-80 0 -232 -4zM182 1464q209 178 332 328l115 -113q-74 -57 -208 -133t-222 -108z" />
<glyph unicode="&#xce;" horiz-adv-x="653" d="M43 1483q84 76 283 284h16l76 -78l65 -66l73 -70l73 -68l-21 -27q-147 70 -274 141q-176 -94 -273 -141zM96 -2v33q96 2 130 46t34 138v979q0 84 -31.5 112.5t-132.5 30.5v33q76 -4 232 -4q154 0 229 4v-33q-102 -2 -133 -29.5t-31 -113.5v-979q0 -94 34 -138t130 -46 v-33q-131 4 -229 4q-80 0 -232 -4z" />
<glyph unicode="&#xcf;" horiz-adv-x="653" d="M53 1573q0 39 24.5 64.5t63.5 25.5t64.5 -25.5t25.5 -64.5t-25.5 -64.5t-64.5 -25.5t-63.5 25.5t-24.5 64.5zM96 -2v33q96 2 130 46t34 138v979q0 84 -31.5 112.5t-132.5 30.5v33q76 -4 232 -4q154 0 229 4v-33q-102 -2 -133 -29.5t-31 -113.5v-979q0 -94 34 -138 t130 -46v-33q-131 4 -229 4q-80 0 -232 -4zM432 1573q0 39 24.5 64.5t63.5 25.5t64.5 -25.5t25.5 -64.5t-25.5 -64.5t-64.5 -25.5t-63.5 25.5t-24.5 64.5z" />
<glyph unicode="&#xd0;" horiz-adv-x="1355" d="M96 -2v33q96 2 130 46t34 138v471h-160v82h160v426q0 84 -31.5 112.5t-132.5 30.5v33q113 -6 238 -6q35 0 114.5 2t112.5 2q340 0 510 -158.5t170 -517.5q0 -319 -155.5 -505.5t-497.5 -186.5q-35 0 -131.5 2t-128.5 2q-123 0 -232 -6zM393 98q78 -10 174 -10 q272 0 398.5 132t126.5 458q0 549 -412 600q-84 10 -287 10v-520h400v-82h-400v-588z" />
<glyph unicode="&#xd1;" horiz-adv-x="1482" d="M106 -2v33q96 2 132 47t36 137v1022q-55 72 -161 78l-4 12q70 59 161 59q82 0 158 -83q168 -184 709 -1037q-12 178 -13 889q0 92 -33.5 137t-129.5 47v31q74 -4 219 -4q78 0 209 4v-31q-96 -2 -130 -47t-34 -137v-1161h-74q-477 762 -784 1165q4 -147 4 -944 q0 -94 34.5 -138t131.5 -46v-33q-131 4 -209 4q-37 0 -110 -2t-112 -2zM485 1468q20 82 67.5 143.5t117.5 61.5q41 0 139 -41q96 -39 123 -39q47 0 73.5 21.5t51.5 68.5l30 -10q-16 -55 -32.5 -90t-54 -67.5t-91.5 -32.5q-55 0 -141 39q-90 39 -125 39q-76 0 -125 -103z" />
<glyph unicode="&#xd2;" horiz-adv-x="1353" d="M113 690q0 324 149.5 514.5t409.5 190.5q156 0 269.5 -57.5t177 -161t92 -227.5t28.5 -273q0 -324 -143.5 -513.5t-413.5 -189.5q-289 0 -429 194.5t-140 522.5zM260 711q0 -303 104.5 -481.5t317.5 -178.5q186 0 298 151.5t112 454.5q0 315 -104.5 487.5t-315.5 172.5 q-201 0 -306.5 -156.5t-105.5 -449.5zM387 1698l115 112q115 -143 332 -327l-17 -27q-88 33 -222 109t-208 133z" />
<glyph unicode="&#xd3;" horiz-adv-x="1353" d="M113 690q0 324 149.5 514.5t409.5 190.5q156 0 269.5 -57.5t177 -161t92 -227.5t28.5 -273q0 -324 -143.5 -513.5t-413.5 -189.5q-289 0 -429 194.5t-140 522.5zM260 711q0 -303 104.5 -481.5t317.5 -178.5q186 0 298 151.5t112 454.5q0 315 -104.5 487.5t-315.5 172.5 q-201 0 -306.5 -156.5t-105.5 -449.5zM514 1464q209 178 332 328l115 -113q-74 -57 -208.5 -133t-222.5 -108z" />
<glyph unicode="&#xd4;" horiz-adv-x="1353" d="M113 690q0 324 149.5 514.5t409.5 190.5q156 0 269.5 -57.5t177 -161t92 -227.5t28.5 -273q0 -324 -143.5 -513.5t-413.5 -189.5q-289 0 -429 194.5t-140 522.5zM260 711q0 -303 104.5 -481.5t317.5 -178.5q186 0 298 151.5t112 454.5q0 315 -104.5 487.5t-315.5 172.5 q-201 0 -306.5 -156.5t-105.5 -449.5zM379 1483q84 76 283 284h16l76 -78l65 -66l73 -70l73 -68l-21 -27q-147 70 -274 141q-176 -94 -273 -141z" />
<glyph unicode="&#xd5;" horiz-adv-x="1353" d="M113 690q0 324 149.5 514.5t409.5 190.5q156 0 269.5 -57.5t177 -161t92 -227.5t28.5 -273q0 -324 -143.5 -513.5t-413.5 -189.5q-289 0 -429 194.5t-140 522.5zM260 711q0 -303 104.5 -481.5t317.5 -178.5q186 0 298 151.5t112 454.5q0 315 -104.5 487.5t-315.5 172.5 q-201 0 -306.5 -156.5t-105.5 -449.5zM389 1468q20 82 67.5 143.5t116.5 61.5q41 0 140 -41q98 -39 123 -39q45 0 72.5 21.5t52.5 68.5l30 -10q-16 -55 -32.5 -90t-54.5 -67.5t-91 -32.5q-55 0 -141 39q-90 39 -125 39q-76 0 -125 -103z" />
<glyph unicode="&#xd6;" horiz-adv-x="1353" d="M113 690q0 324 149.5 514.5t409.5 190.5q156 0 269.5 -57.5t177 -161t92 -227.5t28.5 -273q0 -324 -143.5 -513.5t-413.5 -189.5q-289 0 -429 194.5t-140 522.5zM260 711q0 -303 104.5 -481.5t317.5 -178.5q186 0 298 151.5t112 454.5q0 315 -104.5 487.5t-315.5 172.5 q-201 0 -306.5 -156.5t-105.5 -449.5zM403 1573q0 39 25 64.5t63.5 25.5t64.5 -25.5t26 -64.5t-26 -64.5t-64.5 -25.5t-63.5 25.5t-25 64.5zM782 1573q0 39 24.5 64.5t63.5 25.5t65 -25.5t26 -64.5t-26 -64.5t-65 -25.5t-63.5 25.5t-24.5 64.5z" />
<glyph unicode="&#xd7;" horiz-adv-x="1228" d="M256 313l291 291l-291 289l68 70l292 -289l291 291l66 -68l-291 -291l293 -291l-68 -67l-293 289l-290 -289z" />
<glyph unicode="&#xd8;" horiz-adv-x="1353" d="M113 690q0 324 149.5 514.5t409.5 190.5q195 0 325 -92l105 170l74 -43l-115 -185q178 -186 178 -569q0 -324 -143.5 -513.5t-413.5 -189.5q-203 0 -338 103l-106 -174l-72 41l117 190q-170 188 -170 557zM260 711q0 -293 92 -463l586 958q-100 111 -266 111 q-201 0 -306.5 -156.5t-105.5 -449.5zM403 174q104 -123 279 -123q186 0 298 151.5t112 454.5q0 305 -99 476z" />
<glyph unicode="&#xd9;" horiz-adv-x="1400" d="M80 1337v33q76 -4 231 -4q154 0 230 4v-33q-102 -2 -133 -29.5t-31 -113.5v-725q0 -150 31 -225q72 -174 337 -174q254 0 332 174q31 72 31 215v694q0 92 -33 137t-129 47v31q152 -4 225 -4q80 0 203 4v-31q-96 -2 -129 -48t-33 -140v-690q0 -160 -38 -246 q-98 -236 -445 -236q-344 0 -442 230q-43 100 -43 256v731q0 86 -31 113.5t-133 29.5zM463 1698l115 112q115 -143 331 -327l-16 -27q-88 33 -222 109t-208 133z" />
<glyph unicode="&#xda;" horiz-adv-x="1400" d="M80 1337v33q76 -4 231 -4q154 0 230 4v-33q-102 -2 -133 -29.5t-31 -113.5v-725q0 -150 31 -225q72 -174 337 -174q254 0 332 174q31 72 31 215v694q0 92 -33 137t-129 47v31q152 -4 225 -4q80 0 203 4v-31q-96 -2 -129 -48t-33 -140v-690q0 -160 -38 -246 q-98 -236 -445 -236q-344 0 -442 230q-43 100 -43 256v731q0 86 -31 113.5t-133 29.5zM598 1464q209 178 332 328l114 -113q-74 -57 -208 -133t-222 -108z" />
<glyph unicode="&#xdb;" horiz-adv-x="1400" d="M80 1337v33q76 -4 231 -4q154 0 230 4v-33q-102 -2 -133 -29.5t-31 -113.5v-725q0 -150 31 -225q72 -174 337 -174q254 0 332 174q31 72 31 215v694q0 92 -33 137t-129 47v31q152 -4 225 -4q80 0 203 4v-31q-96 -2 -129 -48t-33 -140v-690q0 -160 -38 -246 q-98 -236 -445 -236q-344 0 -442 230q-43 100 -43 256v731q0 86 -31 113.5t-133 29.5zM446 1483q84 76 283 284h16l76 -78l66 -66l72 -70l73 -68l-20 -27q-147 70 -275 141q-176 -94 -272 -141z" />
<glyph unicode="&#xdc;" horiz-adv-x="1400" d="M80 1337v33q76 -4 231 -4q154 0 230 4v-33q-102 -2 -133 -29.5t-31 -113.5v-725q0 -150 31 -225q72 -174 337 -174q254 0 332 174q31 72 31 215v694q0 92 -33 137t-129 47v31q152 -4 225 -4q80 0 203 4v-31q-96 -2 -129 -48t-33 -140v-690q0 -160 -38 -246 q-98 -236 -445 -236q-344 0 -442 230q-43 100 -43 256v731q0 86 -31 113.5t-133 29.5zM475 1573q0 39 24.5 64.5t63.5 25.5t64.5 -25.5t25.5 -64.5t-25.5 -64.5t-64.5 -25.5t-63.5 25.5t-24.5 64.5zM854 1573q0 39 24.5 64.5t63.5 25.5t64.5 -25.5t25.5 -64.5t-25.5 -64.5 t-64.5 -25.5t-63.5 25.5t-24.5 64.5z" />
<glyph unicode="&#xdd;" horiz-adv-x="1271" d="M8 1341v29q78 -4 232 -4q96 0 227 4v-29q-150 -4 -150 -73q0 -47 58 -148l272 -456l266 448q66 111 66 154q0 72 -143 75v29q131 -4 233 -4q35 0 195 4v-29q-51 -2 -95.5 -46t-107.5 -140l-371 -588v-352q0 -94 33 -138t131 -46v-33q-131 4 -231 4q-78 0 -230 -4v33 q96 2 130 46t34 138v350l-348 590q-39 66 -60.5 96.5t-59.5 59t-81 30.5zM539 1464q209 178 331 328l115 -113q-74 -57 -208 -133t-222 -108z" />
<glyph unicode="&#xde;" horiz-adv-x="1187" d="M96 -2v33q96 2 130 46t34 138v979q0 84 -31.5 112.5t-132.5 30.5v33q76 -4 232 -4q154 0 229 4v-33q-102 -2 -133 -29.5t-31 -113.5v-109q123 6 195 7q504 0 504 -359q0 -182 -131.5 -300t-436.5 -118q-84 0 -131 4v-96q0 -109 40 -149.5t145 -42.5v-33q-131 4 -250 4 q-80 0 -232 -4zM393 397q43 -4 133 -4q426 0 426 324q0 188 -164 256q-90 41 -272 41q-29 0 -123 -4v-613z" />
<glyph unicode="&#xdf;" horiz-adv-x="1167" d="M78 893v43q84 16 117.5 76.5t58.5 189.5q23 123 89.5 202t140 105.5t159.5 26.5q166 0 248 -81t82 -195q0 -57 -22.5 -110.5t-74 -105t-86 -80t-104.5 -79.5q-76 -57 -76 -113q0 -43 39 -75.5t125 -69.5l103 -45q231 -102 231 -293q0 -147 -100.5 -231.5t-245.5 -84.5 q-139 0 -219 54.5t-80 111.5q0 49 86 99l14 -7q0 -70 54.5 -125t150.5 -55q98 0 159.5 55.5t61.5 159.5q0 129 -166 203l-100 45q-125 53 -175 106.5t-50 127.5q0 57 30.5 98t100.5 92q63 47 104 83t79 98.5t38 127.5q0 215 -223 215q-145 0 -219 -129q-20 -35 -36 -129 t-16 -178v-1028q-57 6 -125 6q-66 0 -141 -6v33q80 4 110.5 43t30.5 137v682h-153z" />
<glyph unicode="&#xe0;" horiz-adv-x="1034" d="M98 248q0 287 496 287q63 0 113 -9q2 41 2 95q0 143 -33 198q-55 86 -203 86q-180 0 -272 -137l-31 14q14 80 99 152t233 72q156 0 245 -66t89 -229q0 -29 -3.5 -187.5t-3.5 -261.5q0 -121 38 -162t137 -45v-18q-57 -53 -138 -53q-66 0 -97.5 36.5t-47.5 116.5 q-27 -61 -113 -112.5t-188 -51.5q-141 0 -231.5 77t-90.5 198zM236 262q0 -84 57 -135t162 -51q168 0 254 119q0 6 -1 108.5t-1 157.5q-37 4 -64 4q-407 0 -407 -203zM258 1419l137 86q90 -182 252 -395l-22 -20q-80 53 -195 155t-172 174z" />
<glyph unicode="&#xe1;" horiz-adv-x="1034" d="M98 248q0 287 496 287q63 0 113 -9q2 41 2 95q0 143 -33 198q-55 86 -203 86q-180 0 -272 -137l-31 14q14 80 99 152t233 72q156 0 245 -66t89 -229q0 -29 -3.5 -187.5t-3.5 -261.5q0 -121 38 -162t137 -45v-18q-57 -53 -138 -53q-66 0 -97.5 36.5t-47.5 116.5 q-27 -61 -113 -112.5t-188 -51.5q-141 0 -231.5 77t-90.5 198zM236 262q0 -84 57 -135t162 -51q168 0 254 119q0 6 -1 108.5t-1 157.5q-37 4 -64 4q-407 0 -407 -203zM393 1110q156 205 250 395l137 -86q-57 -72 -171.5 -174t-194.5 -155z" />
<glyph unicode="&#xe2;" horiz-adv-x="1034" d="M98 248q0 287 496 287q63 0 113 -9q2 41 2 95q0 143 -33 198q-55 86 -203 86q-180 0 -272 -137l-31 14q14 80 99 152t233 72q156 0 245 -66t89 -229q0 -29 -3.5 -187.5t-3.5 -261.5q0 -121 38 -162t137 -45v-18q-57 -53 -138 -53q-66 0 -97.5 36.5t-47.5 116.5 q-27 -61 -113 -112.5t-188 -51.5q-141 0 -231.5 77t-90.5 198zM227 1141q133 145 273 336h16l275 -336l-23 -25q-12 8 -260 189l-258 -189zM236 262q0 -84 57 -135t162 -51q168 0 254 119q0 6 -1 108.5t-1 157.5q-37 4 -64 4q-407 0 -407 -203z" />
<glyph unicode="&#xe3;" horiz-adv-x="1034" d="M98 248q0 287 496 287q63 0 113 -9q2 41 2 95q0 143 -33 198q-55 86 -203 86q-180 0 -272 -137l-31 14q14 80 99 152t233 72q156 0 245 -66t89 -229q0 -29 -3.5 -187.5t-3.5 -261.5q0 -121 38 -162t137 -45v-18q-57 -53 -138 -53q-66 0 -97.5 36.5t-47.5 116.5 q-27 -61 -113 -112.5t-188 -51.5q-141 0 -231.5 77t-90.5 198zM215 1180q20 82 67.5 143t116.5 61q41 0 140 -41q96 -39 123 -38q45 0 71.5 22.5t52.5 69.5l31 -13q-16 -55 -32.5 -89.5t-54.5 -67.5t-91 -33q-55 0 -141 39q-90 39 -125 39q-76 0 -127 -105zM236 262 q0 -84 57 -135t162 -51q168 0 254 119q0 6 -1 108.5t-1 157.5q-37 4 -64 4q-407 0 -407 -203z" />
<glyph unicode="&#xe4;" horiz-adv-x="1034" d="M98 248q0 287 496 287q63 0 113 -9q2 41 2 95q0 143 -33 198q-55 86 -203 86q-180 0 -272 -137l-31 14q14 80 99 152t233 72q156 0 245 -66t89 -229q0 -29 -3.5 -187.5t-3.5 -261.5q0 -121 38 -162t137 -45v-18q-57 -53 -138 -53q-66 0 -97.5 36.5t-47.5 116.5 q-27 -61 -113 -112.5t-188 -51.5q-141 0 -231.5 77t-90.5 198zM236 262q0 -84 57 -135t162 -51q168 0 254 119q0 6 -1 108.5t-1 157.5q-37 4 -64 4q-407 0 -407 -203zM238 1268q0 39 24.5 64.5t63.5 25.5t64.5 -25.5t25.5 -64.5t-25.5 -64.5t-64.5 -25.5t-63.5 25.5 t-24.5 64.5zM592 1268q0 39 24.5 64.5t63.5 25.5t64.5 -25.5t25.5 -64.5t-25.5 -64.5t-64.5 -25.5t-63.5 25.5t-24.5 64.5z" />
<glyph unicode="&#xe5;" horiz-adv-x="1034" d="M98 248q0 287 496 287q63 0 113 -9q2 41 2 95q0 143 -33 198q-55 86 -203 86q-180 0 -272 -137l-31 14q14 80 99 152t233 72q156 0 245 -66t89 -229q0 -29 -3.5 -187.5t-3.5 -261.5q0 -121 38 -162t137 -45v-18q-57 -53 -138 -53q-66 0 -97.5 36.5t-47.5 116.5 q-27 -61 -113 -112.5t-188 -51.5q-141 0 -231.5 77t-90.5 198zM236 262q0 -84 57 -135t162 -51q168 0 254 119q0 6 -1 108.5t-1 157.5q-37 4 -64 4q-407 0 -407 -203zM315 1321q0 84 55.5 140.5t139.5 56.5q88 0 143.5 -56.5t55.5 -140.5t-55.5 -139.5t-143.5 -55.5 q-84 0 -139.5 55.5t-55.5 139.5zM391 1319q0 -53 34 -90t85 -37q55 0 89 36t34 91q0 61 -34 98t-89 37q-53 0 -86 -38t-33 -97z" />
<glyph unicode="&#xe6;" horiz-adv-x="1583" d="M98 254q0 156 130 220.5t397 64.5q35 0 71 -4v77q0 137 -37 201q-49 84 -190 84q-180 0 -268 -129l-29 14q14 86 100 155t234 69q233 0 289 -177q113 176 325 177q383 0 383 -437q0 -45 -69 -45h-611q2 -225 94.5 -335.5t251.5 -110.5q199 0 310 137h12q10 -8 10 -35 q0 -59 -105.5 -133t-256.5 -74q-268 0 -371 203q-86 -106 -168 -151t-192 -45q-133 0 -221.5 76.5t-88.5 197.5zM233 266q0 -86 53.5 -136t155.5 -50q88 0 168 44t129 116q-43 98 -43 223q-37 4 -71 4q-392 0 -392 -201zM825 590q133 2 299 5t191 3q47 0 47 39 q0 154 -64.5 222.5t-187.5 68.5q-98 0 -186.5 -75t-98.5 -263z" />
<glyph unicode="&#xe7;" horiz-adv-x="925" d="M100 473q0 256 133.5 394.5t329.5 138.5q145 0 219 -47.5t74 -118.5q0 -68 -106 -121l-17 10q0 195 -201 195q-129 0 -214 -99.5t-85 -314.5t90.5 -323.5t239.5 -108.5q174 0 287 137h14q12 -12 13 -33q0 -57 -98.5 -133t-248.5 -76h-18q-6 -23 -6 -36q0 -31 35 -52 q61 -37 77 -49q55 -41 56 -102q0 -80 -82 -130t-195 -50l-4 32q164 27 164 119q0 55 -70 105q-49 37 -49 75q0 33 31 92q-170 18 -269.5 145.5t-99.5 350.5z" />
<glyph unicode="&#xe8;" horiz-adv-x="987" d="M100 498q0 238 118 373t306 135q383 0 383 -426q0 -55 -69 -56h-609q2 -225 93.5 -335.5t250.5 -110.5q199 0 312 137h10q10 -8 10 -35q0 -59 -105.5 -133t-256.5 -74q-217 0 -330 138.5t-113 386.5zM231 590q131 2 298 5t192 3q45 0 45 39q0 291 -250 291 q-98 0 -186.5 -75t-98.5 -263zM254 1419l137 86q90 -182 252 -395l-22 -20q-80 53 -195 155t-172 174z" />
<glyph unicode="&#xe9;" horiz-adv-x="987" d="M100 498q0 238 118 373t306 135q383 0 383 -426q0 -55 -69 -56h-609q2 -225 93.5 -335.5t250.5 -110.5q199 0 312 137h10q10 -8 10 -35q0 -59 -105.5 -133t-256.5 -74q-217 0 -330 138.5t-113 386.5zM231 590q131 2 298 5t192 3q45 0 45 39q0 291 -250 291 q-98 0 -186.5 -75t-98.5 -263zM418 1110q156 205 250 395l137 -86q-57 -72 -172 -174t-195 -155z" />
<glyph unicode="&#xea;" horiz-adv-x="987" d="M100 498q0 238 118 373t306 135q383 0 383 -426q0 -55 -69 -56h-609q2 -225 93.5 -335.5t250.5 -110.5q199 0 312 137h10q10 -8 10 -35q0 -59 -105.5 -133t-256.5 -74q-217 0 -330 138.5t-113 386.5zM231 590q131 2 298 5t192 3q45 0 45 39q0 291 -250 291 q-98 0 -186.5 -75t-98.5 -263zM250 1141q133 145 272 336h17l274 -336l-22 -25q-12 8 -261 189l-258 -189z" />
<glyph unicode="&#xeb;" horiz-adv-x="987" d="M100 498q0 238 118 373t306 135q383 0 383 -426q0 -55 -69 -56h-609q2 -225 93.5 -335.5t250.5 -110.5q199 0 312 137h10q10 -8 10 -35q0 -59 -105.5 -133t-256.5 -74q-217 0 -330 138.5t-113 386.5zM231 590q131 2 298 5t192 3q45 0 45 39q0 291 -250 291 q-98 0 -186.5 -75t-98.5 -263zM266 1268q0 39 24.5 64.5t63.5 25.5t64.5 -25.5t25.5 -64.5t-25.5 -64.5t-64.5 -25.5t-63.5 25.5t-24.5 64.5zM621 1268q0 39 24.5 64.5t63.5 25.5t64.5 -25.5t25.5 -64.5t-25.5 -64.5t-64.5 -25.5t-63.5 25.5t-24.5 64.5z" />
<glyph unicode="&#xec;" horiz-adv-x="575" d="M-33 1419l137 86q90 -182 252 -395l-22 -20q-80 53 -195 155t-172 174zM80 893v16q92 82 176 82q86 0 106 -100q4 -45 5 -90v-604q0 -88 35.5 -126t129.5 -40v-33q-119 6 -227 6q-127 0 -205 -6v33q82 4 114 43t32 137v418q0 150 -35 207t-131 57z" />
<glyph unicode="&#xed;" horiz-adv-x="575" d="M80 893v16q92 82 176 82q86 0 106 -100q4 -45 5 -90v-604q0 -88 35.5 -126t129.5 -40v-33q-119 6 -227 6q-127 0 -205 -6v33q82 4 114 43t32 137v418q0 150 -35 207t-131 57zM119 1110q156 205 250 395l137 -86q-57 -72 -172 -174t-195 -155z" />
<glyph unicode="&#xee;" horiz-adv-x="575" d="M0 1141q133 145 272 336h17l274 -336l-22 -25q-12 8 -260 189l-258 -189zM80 893v16q92 82 176 82q86 0 106 -100q4 -45 5 -90v-604q0 -88 35.5 -126t129.5 -40v-33q-119 6 -227 6q-127 0 -205 -6v33q82 4 114 43t32 137v418q0 150 -35 207t-131 57z" />
<glyph unicode="&#xef;" horiz-adv-x="575" d="M6 1268q0 39 24.5 64.5t63.5 25.5t64.5 -25.5t25.5 -64.5t-25.5 -64.5t-64.5 -25.5t-63.5 25.5t-24.5 64.5zM80 893v16q92 82 176 82q86 0 106 -100q4 -45 5 -90v-604q0 -88 35.5 -126t129.5 -40v-33q-119 6 -227 6q-127 0 -205 -6v33q82 4 114 43t32 137v418 q0 150 -35 207t-131 57zM360 1268q0 39 25 64.5t63.5 25.5t64.5 -25.5t26 -64.5t-26 -64.5t-64.5 -25.5t-63.5 25.5t-25 64.5z" />
<glyph unicode="&#xf0;" horiz-adv-x="1075" d="M100 496q0 233 120 367t325 134q137 0 205 -61q-57 133 -193 244l-256 -125l-33 69l221 107q-115 78 -256 129l23 51q190 -45 334 -131l221 106l31 -67l-180 -88q313 -240 313 -709q0 -260 -112.5 -404.5t-327.5 -144.5q-219 0 -327 136.5t-108 386.5zM240 520 q0 -238 69.5 -353.5t227.5 -115.5q154 0 227.5 123t73.5 330q0 416 -297 416q-147 0 -224 -106t-77 -294z" />
<glyph unicode="&#xf1;" horiz-adv-x="1191" d="M78 893v16q92 82 166 82q23 0 39 -5t34.5 -20.5t28.5 -51t12 -91.5q49 72 143.5 124t227.5 52q166 0 225 -122q31 -78 31 -199v-381q0 -100 16 -156q25 -86 158 -86v-18q-63 -53 -133 -53q-117 0 -149 104q-12 39 -13 211v330q0 104 -28 168q-16 45 -61.5 70.5 t-100.5 25.5q-186 0 -309 -119v-577q0 -86 33.5 -125t121.5 -41v-33q-123 6 -217 6q-137 0 -213 -6v33q88 4 121 42t33 138v418q0 150 -35 207t-131 57zM283 1180q20 82 67 143t117 61q41 0 139 -41q98 -39 123 -38q45 0 71.5 22.5t53.5 69.5l31 -13q-16 -55 -32.5 -89.5 t-54.5 -67.5t-91 -33q-55 0 -142 39q-90 39 -125 39q-76 0 -127 -105z" />
<glyph unicode="&#xf2;" horiz-adv-x="1075" d="M100 496q0 240 120 375t325 135q430 0 430 -504q0 -240 -113.5 -384.5t-326.5 -144.5q-219 0 -327 136.5t-108 386.5zM240 520q0 -238 69.5 -353.5t227.5 -115.5q154 0 227.5 123t73.5 330q0 227 -76 325.5t-221 98.5q-147 0 -224 -107.5t-77 -300.5zM276 1419l138 86 q90 -182 252 -395l-23 -20q-80 53 -195 155t-172 174z" />
<glyph unicode="&#xf3;" horiz-adv-x="1075" d="M100 496q0 240 120 375t325 135q430 0 430 -504q0 -240 -113.5 -384.5t-326.5 -144.5q-219 0 -327 136.5t-108 386.5zM240 520q0 -238 69.5 -353.5t227.5 -115.5q154 0 227.5 123t73.5 330q0 227 -76 325.5t-221 98.5q-147 0 -224 -107.5t-77 -300.5zM383 1110 q156 205 250 395l137 -86q-57 -72 -172 -174t-195 -155z" />
<glyph unicode="&#xf4;" horiz-adv-x="1075" d="M100 496q0 240 120 375t325 135q430 0 430 -504q0 -240 -113.5 -384.5t-326.5 -144.5q-219 0 -327 136.5t-108 386.5zM240 520q0 -238 69.5 -353.5t227.5 -115.5q154 0 227.5 123t73.5 330q0 227 -76 325.5t-221 98.5q-147 0 -224 -107.5t-77 -300.5zM256 1141 q133 145 272 336h17l274 -336l-22 -25q-12 8 -260 189l-258 -189z" />
<glyph unicode="&#xf5;" horiz-adv-x="1075" d="M100 496q0 240 120 375t325 135q430 0 430 -504q0 -240 -113.5 -384.5t-326.5 -144.5q-219 0 -327 136.5t-108 386.5zM240 520q0 -238 69.5 -353.5t227.5 -115.5q154 0 227.5 123t73.5 330q0 227 -76 325.5t-221 98.5q-147 0 -224 -107.5t-77 -300.5zM244 1180 q20 82 67 143t117 61q41 0 139 -41q96 -39 123 -38q45 0 71.5 22.5t53.5 69.5l31 -13q-16 -55 -32.5 -89.5t-54.5 -67.5t-91 -33q-55 0 -142 39q-90 39 -125 39q-76 0 -127 -105z" />
<glyph unicode="&#xf6;" horiz-adv-x="1075" d="M100 496q0 240 120 375t325 135q430 0 430 -504q0 -240 -113.5 -384.5t-326.5 -144.5q-219 0 -327 136.5t-108 386.5zM240 520q0 -238 69.5 -353.5t227.5 -115.5q154 0 227.5 123t73.5 330q0 227 -76 325.5t-221 98.5q-147 0 -224 -107.5t-77 -300.5zM276 1268 q0 39 25 64.5t63.5 25.5t64.5 -25.5t26 -64.5t-26 -64.5t-64.5 -25.5t-63.5 25.5t-25 64.5zM631 1268q0 39 24.5 64.5t63.5 25.5t64.5 -25.5t25.5 -64.5t-25.5 -64.5t-64.5 -25.5t-63.5 25.5t-24.5 64.5z" />
<glyph unicode="&#xf7;" horiz-adv-x="1228" d="M158 553v96h913v-96h-913zM535 305q0 33 22.5 56.5t55 23.5t55 -23.5t22.5 -58.5q0 -31 -22.5 -54.5t-55.5 -23.5q-35 0 -56 23.5t-21 56.5zM535 897q0 33 22.5 56.5t55 23.5t55 -23.5t22.5 -58.5q0 -31 -22.5 -54.5t-55.5 -23.5q-35 0 -56 23.5t-21 56.5z" />
<glyph unicode="&#xf8;" horiz-adv-x="1075" d="M100 496q0 240 120 375t325 135q137 0 229 -52l86 138l70 -41l-90 -144q135 -123 135 -405q0 -240 -113.5 -384.5t-326.5 -144.5q-143 0 -240 60l-82 -131l-68 39l86 141q-131 129 -131 414zM240 520q0 -225 57 -334l426 684q-70 57 -182 58q-147 0 -224 -107.5 t-77 -300.5zM348 119q68 -68 189 -68q154 0 227.5 123t73.5 330q0 195 -62 301z" />
<glyph unicode="&#xf9;" horiz-adv-x="1181" d="M70 893v16q29 31 82 56.5t104 25.5q80 0 84 -90q2 -39 2 -139v-414q0 -119 29 -182q49 -86 176 -86q195 0 299 115v469q0 76 -6 124q-6 55 -41 80t-111 25v16q31 29 86 55.5t107 26.5q82 0 86 -92q2 -37 2 -199v-444q0 -109 37.5 -155t134.5 -46v-18q-51 -53 -135 -53 q-129 0 -148 149q-125 -160 -344 -160q-86 0 -156.5 33t-101.5 92q-37 66 -37 211v340q0 106 -4 135q-8 59 -40.5 84t-104.5 25zM268 1419l138 86q90 -182 251 -395l-22 -20q-80 53 -195 155t-172 174z" />
<glyph unicode="&#xfa;" horiz-adv-x="1181" d="M70 893v16q29 31 82 56.5t104 25.5q80 0 84 -90q2 -39 2 -139v-414q0 -119 29 -182q49 -86 176 -86q195 0 299 115v469q0 76 -6 124q-6 55 -41 80t-111 25v16q31 29 86 55.5t107 26.5q82 0 86 -92q2 -37 2 -199v-444q0 -109 37.5 -155t134.5 -46v-18q-51 -53 -135 -53 q-129 0 -148 149q-125 -160 -344 -160q-86 0 -156.5 33t-101.5 92q-37 66 -37 211v340q0 106 -4 135q-8 59 -40.5 84t-104.5 25zM457 1110q156 205 250 395l137 -86q-57 -72 -172 -174t-195 -155z" />
<glyph unicode="&#xfb;" horiz-adv-x="1181" d="M70 893v16q29 31 82 56.5t104 25.5q80 0 84 -90q2 -39 2 -139v-414q0 -119 29 -182q49 -86 176 -86q195 0 299 115v469q0 76 -6 124q-6 55 -41 80t-111 25v16q31 29 86 55.5t107 26.5q82 0 86 -92q2 -37 2 -199v-444q0 -109 37.5 -155t134.5 -46v-18q-51 -53 -135 -53 q-129 0 -148 149q-125 -160 -344 -160q-86 0 -156.5 33t-101.5 92q-37 66 -37 211v340q0 106 -4 135q-8 59 -40.5 84t-104.5 25zM285 1141q133 145 272 336h16l275 -336l-23 -25q-12 8 -260 189l-258 -189z" />
<glyph unicode="&#xfc;" horiz-adv-x="1181" d="M70 893v16q29 31 82 56.5t104 25.5q80 0 84 -90q2 -39 2 -139v-414q0 -119 29 -182q49 -86 176 -86q195 0 299 115v469q0 76 -6 124q-6 55 -41 80t-111 25v16q31 29 86 55.5t107 26.5q82 0 86 -92q2 -37 2 -199v-444q0 -109 37.5 -155t134.5 -46v-18q-51 -53 -135 -53 q-129 0 -148 149q-125 -160 -344 -160q-86 0 -156.5 33t-101.5 92q-37 66 -37 211v340q0 106 -4 135q-8 59 -40.5 84t-104.5 25zM297 1268q0 39 24.5 64.5t63.5 25.5t64.5 -25.5t25.5 -64.5t-25.5 -64.5t-64.5 -25.5t-63.5 25.5t-24.5 64.5zM651 1268q0 39 24.5 64.5 t63.5 25.5t64.5 -25.5t25.5 -64.5t-25.5 -64.5t-64.5 -25.5t-63.5 25.5t-24.5 64.5z" />
<glyph unicode="&#xfd;" horiz-adv-x="999" d="M8 893v16q72 82 139 82q25 0 45.5 -15t30.5 -29.5t27 -45.5q29 -51 82 -188q217 -561 219 -568l76 190q66 163 110 288q53 150 54 211q0 59 -52 86l-2 16q76 55 140 55q25 0 45 -18.5t20 -61.5q0 -20 -6 -48.5t-13.5 -52.5t-23.5 -64l-26 -62l-30 -72l-30 -67l-82 -195 l-93 -217l-89 -192q-55 -117 -109 -213q-41 -76 -84 -116t-66.5 -46t-60.5 -6q-45 0 -80.5 40t-42.5 93l13 8q33 -14 69 -14q119 0 199 141q63 113 90 176q-221 594 -313 768q-33 61 -67 91t-89 30zM414 1110q156 205 250 395l137 -86q-57 -72 -172 -174t-195 -155z" />
<glyph unicode="&#xfe;" horiz-adv-x="1142" d="M51 1423v19q111 92 195 92q53 0 68.5 -38t15.5 -165q0 -47 -1 -257t-1 -228q133 154 311 153q78 0 142.5 -23.5t122 -76.5t90 -154.5t32.5 -244.5q0 -242 -116.5 -376t-319.5 -134q-162 0 -260 78v-287q0 -96 39 -134t137 -42v-33q-123 6 -238 6q-139 0 -215 -6v33 q88 6 121 43t33 137v1452q0 111 -30 147.5t-126 38.5zM330 154q100 -76 258 -76q127 0 214 101.5t87 297.5q0 221 -78 319.5t-199 98.5q-178 0 -282 -123v-618z" />
<glyph unicode="&#xff;" horiz-adv-x="999" d="M8 893v16q72 82 139 82q25 0 45.5 -15t30.5 -29.5t27 -45.5q29 -51 82 -188q217 -561 219 -568l76 190q66 163 110 288q53 150 54 211q0 59 -52 86l-2 16q76 55 140 55q25 0 45 -18.5t20 -61.5q0 -20 -6 -48.5t-13.5 -52.5t-23.5 -64l-26 -62l-30 -72l-30 -67l-82 -195 l-93 -217l-89 -192q-55 -117 -109 -213q-41 -76 -84 -116t-66.5 -46t-60.5 -6q-45 0 -80.5 40t-42.5 93l13 8q33 -14 69 -14q119 0 199 141q63 113 90 176q-221 594 -313 768q-33 61 -67 91t-89 30zM262 1268q0 39 24.5 64.5t63.5 25.5t64.5 -25.5t25.5 -64.5t-25.5 -64.5 t-64.5 -25.5t-63.5 25.5t-24.5 64.5zM616 1268q0 39 25 64.5t63.5 25.5t64.5 -25.5t26 -64.5t-26 -64.5t-64.5 -25.5t-63.5 25.5t-25 64.5z" />
<glyph unicode="&#x152;" horiz-adv-x="1826" d="M113 690q0 332 159.5 512t434.5 180q63 0 197 -10t224 -10q229 0 545 6q4 -111 21 -297h-37q-31 143 -95.5 177t-271.5 34h-190v-528h108q168 0 223.5 30.5t59.5 116.5h39q-4 -63 -4 -188t4 -187h-39q-4 84 -58.5 117t-222.5 33h-110v-578q150 -16 350 -16q127 0 177 52 t67 194h41q-6 -164 -6 -328q-217 2 -650 2q-68 0 -195.5 -8t-199.5 -8q-291 0 -431 189t-140 515zM260 711q0 -647 436 -648q168 0 224 46q47 37 47 145v860q0 123 -52 154q-61 37 -208 37q-219 0 -333 -151.5t-114 -442.5z" />
<glyph unicode="&#x153;" horiz-adv-x="1726" d="M100 498q0 242 116 375t325 133q270 0 368 -207q115 207 355 207q383 0 383 -437q0 -45 -70 -45h-610q2 -225 94 -335.5t252 -110.5q199 0 309 137h12q10 -8 11 -35q0 -59 -105.5 -133t-257.5 -74q-274 0 -381 222q-111 -221 -366 -222q-207 0 -321 139.5t-114 385.5z M240 524q0 -227 76.5 -350t228.5 -123q139 0 216 126t77 325q0 225 -77 325.5t-224.5 100.5t-222 -105.5t-74.5 -298.5zM969 590q133 2 299 5t190 3q47 0 47 39q0 154 -64.5 222.5t-187.5 68.5q-98 0 -186 -75t-98 -263z" />
<glyph unicode="&#x178;" horiz-adv-x="1271" d="M8 1341v29q78 -4 232 -4q96 0 227 4v-29q-150 -4 -150 -73q0 -47 58 -148l272 -456l266 448q66 111 66 154q0 72 -143 75v29q131 -4 233 -4q35 0 195 4v-29q-51 -2 -95.5 -46t-107.5 -140l-371 -588v-352q0 -94 33 -138t131 -46v-33q-131 4 -231 4q-78 0 -230 -4v33 q96 2 130 46t34 138v350l-348 590q-39 66 -60.5 96.5t-59.5 59t-81 30.5zM387 1573q0 39 24.5 64.5t63.5 25.5t64.5 -25.5t25.5 -64.5t-25.5 -64.5t-64.5 -25.5t-63.5 25.5t-24.5 64.5zM766 1573q0 39 24.5 64.5t63.5 25.5t64.5 -25.5t25.5 -64.5t-25.5 -64.5t-64.5 -25.5 t-63.5 25.5t-24.5 64.5z" />
<glyph unicode="&#x2c6;" horiz-adv-x="614" d="M25 1141q133 145 272 336h16l275 -336l-23 -25q-12 8 -260 189l-258 -189z" />
<glyph unicode="&#x2dc;" horiz-adv-x="614" d="M6 1180q20 82 67.5 143t116.5 61q41 0 140 -41q96 -39 123 -38q45 0 71.5 22.5t53.5 69.5l30 -13q-16 -55 -32.5 -89.5t-54.5 -67.5t-91 -33q-55 0 -141 39q-90 39 -125 39q-76 0 -127 -105z" />
<glyph unicode="&#x2013;" horiz-adv-x="1187" d="M102 459v110h983v-110h-983z" />
<glyph unicode="&#x2014;" horiz-adv-x="1773" d="M102 459v110h1569v-110h-1569z" />
<glyph unicode="&#x2018;" horiz-adv-x="393" d="M94 1081q0 100 63.5 191.5t172.5 154.5l22 -26q-137 -104 -137 -211q0 -45 37 -76q53 -43 53 -86q0 -39 -27.5 -65.5t-66.5 -26.5q-53 0 -85 36.5t-32 108.5z" />
<glyph unicode="&#x2019;" horiz-adv-x="393" d="M41 934q137 104 137 211q0 45 -37 76q-53 43 -53 86q0 39 27.5 65.5t66.5 26.5q53 0 85 -37t32 -109q0 -100 -63.5 -191t-172.5 -155z" />
<glyph unicode="&#x201a;" horiz-adv-x="393" d="M41 -213q137 104 137 211q0 45 -37 76q-53 43 -53 86q0 39 27.5 65.5t66.5 26.5q53 0 85 -37t32 -109q0 -100 -63.5 -191t-172.5 -155z" />
<glyph unicode="&#x201c;" horiz-adv-x="700" d="M94 1081q0 100 63.5 191.5t172.5 154.5l22 -26q-137 -104 -137 -211q0 -45 37 -76q53 -43 53 -86q0 -39 -27.5 -65.5t-66.5 -26.5q-53 0 -85 36.5t-32 108.5zM401 1081q0 100 63.5 191.5t172.5 154.5l22 -26q-137 -104 -137 -211q0 -45 37 -76q53 -43 53 -86 q0 -39 -27.5 -65.5t-66.5 -26.5q-53 0 -85 36.5t-32 108.5z" />
<glyph unicode="&#x201d;" horiz-adv-x="700" d="M41 934q137 104 137 211q0 45 -37 76q-53 43 -53 86q0 39 27.5 65.5t66.5 26.5q53 0 85 -37t32 -109q0 -100 -63.5 -191t-172.5 -155zM348 934q137 104 137 211q0 45 -36 76q-53 43 -54 86q0 39 28 65.5t66 26.5q53 0 85 -37t32 -109q0 -100 -63.5 -191t-171.5 -155z" />
<glyph unicode="&#x201e;" horiz-adv-x="700" d="M41 -213q137 104 137 211q0 45 -37 76q-53 43 -53 86q0 39 27.5 65.5t66.5 26.5q53 0 85 -37t32 -109q0 -100 -63.5 -191t-172.5 -155zM348 -213q137 104 137 211q0 45 -36 76q-53 43 -54 86q0 39 28 65.5t66 26.5q53 0 85 -37t32 -109q0 -100 -63.5 -191t-171.5 -155z " />
<glyph unicode="&#x2022;" horiz-adv-x="897" d="M164 668q0 119 82 202.5t203 83.5q125 0 204.5 -83t79.5 -203.5t-80 -203.5t-204.5 -83t-204.5 83t-80 204z" />
<glyph unicode="&#x2026;" horiz-adv-x="1669" d="M178 76q0 41 29 68.5t69 27.5q43 0 70 -26.5t27 -71.5q0 -43 -28 -70t-68.5 -27t-69.5 28t-29 71zM735 76q0 41 29 68.5t70 27.5q43 0 69.5 -26.5t26.5 -71.5q0 -43 -28 -70t-68.5 -27t-69.5 28t-29 71zM1296 76q0 41 29 68.5t70 27.5q43 0 69.5 -26.5t26.5 -71.5 q0 -43 -27.5 -70t-68.5 -27t-70 28t-29 71z" />
<glyph unicode="&#x2039;" horiz-adv-x="616" d="M88 485q164 168 375 422l37 -28q-27 -51 -68 -118l-93 -149l-75 -118q117 -190 236 -408l-41 -25q-197 242 -371 424z" />
<glyph unicode="&#x203a;" horiz-adv-x="616" d="M117 92q27 51 67 118l94 148l74 119l-235 408l41 24q154 -190 370 -424q-164 -168 -374 -422z" />
<glyph unicode="&#x20ac;" horiz-adv-x="1310" d="M147 516v68h166v51q0 72 4 106h-170v68h179q35 246 172 383t354 137q174 0 266 -52t92 -132q0 -72 -100 -115l-14 6q0 111 -74 165t-178 54q-156 0 -258.5 -109.5t-130.5 -336.5h536v-68h-542q-2 -33 -3 -100v-57h545v-68h-538q27 -231 138 -335.5t267 -104.5 q221 0 344 186h8q14 -16 15 -35q0 -78 -108.5 -166t-268.5 -88q-240 0 -373 143.5t-158 399.5h-170z" />
<glyph unicode="&#x2122;" horiz-adv-x="1888" d="M80 1176q10 102 14 192q219 -4 334 -4q121 0 338 4q4 -90 14 -192h-39q-25 90 -56.5 111.5t-154.5 21.5h-45v-592q0 -55 21.5 -81t87.5 -26v-32q-57 4 -170 4q-76 0 -154 -4v32q68 0 87.5 26t19.5 81v592h-58q-121 0 -149.5 -20.5t-52.5 -112.5h-37zM797 578v32 q57 0 77.5 28t26.5 83q49 528 49 561q-20 43 -88 47l-2 17q53 35 118.5 34.5t92.5 -51.5q92 -172 225 -547q8 27 228 586q25 -2 108 -2q68 0 113 4v-33q-51 -2 -69.5 -22.5t-18.5 -69.5q0 -6 35 -524q4 -59 26.5 -85t81.5 -26v-32q-82 4 -153 4q-74 0 -168 -4v32 q59 0 80.5 27t21.5 84q0 90 -27 543q-18 -51 -114 -293l-142 -359h-47q-102 309 -241 607q-31 -418 -31 -498q0 -55 21.5 -83t78.5 -28v-32q-74 4 -145 4q-47 0 -137 -4z" />
<glyph unicode="&#xe000;" horiz-adv-x="990" d="M0 990h990v-990h-990v990z" />
<glyph unicode="&#xfb01;" horiz-adv-x="1181" d="M78 893v43q82 16 116.5 68.5t47.5 138.5q59 393 428 393q123 0 190.5 -49t67.5 -107q0 -43 -36 -74.5t-91 -41.5l-13 8q0 184 -155 184q-172 0 -236 -151q-41 -94 -41 -269v-61h232q94 0 159.5 4t93 8t33.5 4q80 0 95 -82q4 -23 4 -98v-614q0 -88 35.5 -126t130.5 -40 v-33q-119 6 -228 6q-127 0 -204 -6v33q82 4 113.5 43t31.5 137v430q0 154 -34 203t-132 49h-330v-682q0 -104 42 -140t143 -40v-33q-119 6 -246 6q-129 0 -205 -6v33q80 4 110.5 43t30.5 137v682h-153z" />
<glyph unicode="&#xfb02;" horiz-adv-x="1171" d="M78 893v43q86 18 116.5 68.5t53.5 179.5q31 182 145.5 267t249.5 85q109 0 186 -33q57 31 86 31q25 0 37.5 -12.5t16.5 -53.5q4 -53 4 -120v-1151q0 -88 34.5 -126t129.5 -40v-33q-123 6 -226 6q-129 0 -204 -6v33q80 4 111.5 43t31.5 137v928q0 180 -39 237 q-53 80 -168 80q-74 0 -136.5 -31.5t-94.5 -91.5q-55 -98 -56 -276v-82h279v-82h-279v-682q0 -104 42 -140t143 -40v-33q-119 6 -246 6q-129 0 -205 -6v33q80 4 110.5 43t30.5 137v682h-153z" />
<glyph unicode="&#xfb03;" horiz-adv-x="1800" d="M78 893v43q88 18 118.5 63t45.5 168q20 180 122.5 260t235.5 80q121 0 173 -40t52 -87q0 -68 -100 -88l-12 8q0 80 -39 103.5t-109 23.5q-43 0 -93 -25.5t-81 -82.5q-35 -68 -35 -240v-104h265q158 0 186 26q41 35 53 142q53 393 428 393q123 0 190.5 -49t67.5 -107 q0 -43 -35.5 -74.5t-91.5 -41.5l-12 8q0 184 -156 184q-172 0 -235 -151q-41 -94 -41 -269v-61h231q94 0 160 4t93.5 8t33.5 4q80 0 94 -82q4 -23 4 -98v-614q0 -88 36 -126t130 -40v-33q-119 6 -227 6q-127 0 -205 -6v33q82 4 113.5 43t31.5 137v430q0 154 -33.5 203 t-131.5 49h-330v-682q0 -104 42 -140t142 -40v-33q-119 6 -246 6q-129 0 -204 -6v33q80 4 110.5 43t30.5 137v682h-494v-682q0 -104 42 -140t143 -40v-33q-119 6 -246 6q-129 0 -205 -6v33q80 4 110.5 43t30.5 137v682h-153z" />
<glyph unicode="&#xfb04;" horiz-adv-x="1789" d="M78 893v43q88 18 118.5 63t45.5 168q20 180 122.5 260t235.5 80q121 0 173 -40t52 -87q0 -68 -100 -88l-12 8q0 80 -39 103.5t-109 23.5q-43 0 -93 -25.5t-81 -82.5q-35 -68 -35 -240v-104h330q106 0 135 41q20 29 45 168q31 182 145.5 267t250.5 85q109 0 186 -33 q57 31 86 31q25 0 37 -12.5t16 -53.5q4 -53 4 -120v-1151q0 -88 35 -126t129 -40v-33q-123 6 -225 6q-129 0 -205 -6v33q80 4 111.5 43t31.5 137v928q0 180 -38 237q-53 80 -168 80q-74 0 -136.5 -31.5t-95.5 -91.5q-55 -98 -55 -276v-82h278v-82h-278v-682q0 -104 42 -140 t142 -40v-33q-119 6 -246 6q-129 0 -204 -6v33q80 4 110.5 43t30.5 137v682h-494v-682q0 -104 42 -140t143 -40v-33q-119 6 -246 6q-129 0 -205 -6v33q80 4 110.5 43t30.5 137v682h-153z" />
</font>
</defs>
</svg>
